<svg id="svg" version="1.1" xmlns="http://www.w3.org/2000/svg" xmlns:xlink="http://www.w3.org/1999/xlink" width="400" height="400" viewBox="0, 0, 400,400"><g id="svgg"><path id="path0" d="M82.634 40.255 C 82.431 40.785,82.010 40.865,80.426 40.678 C 78.868 40.493,78.419 40.574,78.227 41.075 C 78.046 41.546,77.611 41.653,76.490 41.503 C 75.513 41.372,74.816 41.493,74.481 41.851 C 74.199 42.153,73.626 42.400,73.208 42.400 C 72.789 42.400,72.336 42.580,72.200 42.800 C 72.064 43.020,71.609 43.200,71.189 43.200 C 70.768 43.200,69.765 43.570,68.960 44.023 C 68.154 44.475,67.249 44.751,66.948 44.635 C 66.631 44.514,66.400 44.684,66.400 45.040 C 66.400 45.472,66.163 45.579,65.600 45.400 C 65.032 45.220,64.800 45.328,64.800 45.773 C 64.800 46.118,64.530 46.400,64.200 46.400 C 63.870 46.400,63.600 46.559,63.600 46.753 C 63.600 47.029,62.351 47.569,61.690 47.579 C 61.629 47.580,61.170 48.023,60.669 48.563 C 60.169 49.103,59.274 49.667,58.680 49.816 C 58.086 49.965,57.600 50.229,57.600 50.403 C 57.600 50.863,50.928 57.600,50.472 57.600 C 50.260 57.600,49.965 58.086,49.816 58.680 C 49.667 59.274,49.062 60.207,48.472 60.753 C 47.883 61.300,47.429 61.800,47.465 61.864 C 47.642 62.184,47.061 63.600,46.753 63.600 C 46.559 63.600,46.400 63.870,46.400 64.200 C 46.400 64.530,46.118 64.800,45.773 64.800 C 45.328 64.800,45.220 65.032,45.400 65.600 C 45.576 66.153,45.472 66.400,45.064 66.400 C 44.684 66.400,44.545 66.667,44.672 67.155 C 44.781 67.570,44.674 68.031,44.435 68.178 C 44.196 68.326,44.000 68.802,44.000 69.236 C 44.000 69.670,43.725 70.131,43.388 70.260 C 43.001 70.408,42.864 70.772,43.016 71.249 C 43.171 71.740,43.025 72.092,42.598 72.256 C 42.135 72.434,42.012 72.791,42.180 73.463 C 42.340 74.099,42.226 74.492,41.840 74.640 C 41.425 74.799,41.323 75.250,41.481 76.224 C 41.641 77.207,41.538 77.649,41.112 77.812 C 40.667 77.983,40.566 78.510,40.705 79.947 C 40.840 81.353,40.718 82.024,40.244 82.499 C 39.253 83.489,39.253 317.311,40.244 318.301 C 40.718 318.776,40.840 319.447,40.705 320.853 C 40.566 322.290,40.667 322.817,41.112 322.988 C 41.538 323.151,41.641 323.593,41.481 324.576 C 41.323 325.550,41.425 326.001,41.840 326.160 C 42.237 326.312,42.340 326.700,42.166 327.391 C 41.969 328.178,42.065 328.400,42.603 328.400 C 43.120 328.400,43.246 328.646,43.106 329.380 C 42.991 329.979,43.129 330.441,43.459 330.567 C 43.757 330.682,44.000 331.141,44.000 331.587 C 44.000 332.034,44.180 332.400,44.400 332.400 C 44.620 332.400,44.800 332.665,44.800 332.988 C 44.800 333.572,46.172 336.281,46.806 336.949 C 46.989 337.141,47.042 337.546,46.926 337.849 C 46.800 338.176,46.975 338.400,47.357 338.400 C 47.711 338.400,48.000 338.588,48.000 338.817 C 48.000 339.046,48.363 339.623,48.806 340.099 C 49.250 340.575,49.925 341.643,50.306 342.472 C 50.688 343.301,51.144 343.984,51.321 343.990 C 51.497 343.995,53.168 345.530,55.034 347.400 C 56.900 349.270,58.594 350.800,58.800 350.800 C 59.005 350.800,59.719 351.334,60.386 351.987 C 61.054 352.639,61.600 353.077,61.600 352.959 C 61.600 352.842,62.123 353.118,62.762 353.573 C 63.401 354.028,64.121 354.400,64.362 354.400 C 64.603 354.400,64.800 354.682,64.800 355.027 C 64.800 355.472,65.032 355.580,65.600 355.400 C 66.163 355.221,66.400 355.328,66.400 355.760 C 66.400 356.116,66.631 356.286,66.948 356.165 C 67.249 356.049,68.154 356.325,68.960 356.777 C 69.765 357.230,70.768 357.600,71.189 357.600 C 71.609 357.600,72.064 357.780,72.200 358.000 C 72.336 358.220,72.802 358.400,73.236 358.400 C 73.670 358.400,74.116 358.638,74.228 358.928 C 74.352 359.253,74.863 359.393,75.551 359.293 C 76.228 359.193,76.921 359.378,77.304 359.761 C 77.776 360.233,78.382 360.332,79.695 360.152 C 81.019 359.971,81.614 360.071,82.098 360.556 C 82.962 361.419,317.812 361.563,318.100 360.700 C 318.210 360.371,319.076 360.209,320.634 360.227 C 322.265 360.246,323.135 360.074,323.435 359.672 C 323.715 359.297,324.313 359.155,325.119 359.274 C 325.927 359.392,326.441 359.270,326.572 358.928 C 326.684 358.638,327.130 358.400,327.564 358.400 C 327.998 358.400,328.464 358.220,328.600 358.000 C 328.736 357.780,329.191 357.600,329.611 357.600 C 330.032 357.600,331.035 357.230,331.840 356.777 C 332.646 356.325,333.551 356.049,333.852 356.165 C 334.169 356.286,334.400 356.116,334.400 355.760 C 334.400 355.328,334.637 355.221,335.200 355.400 C 335.768 355.580,336.000 355.472,336.000 355.027 C 336.000 354.682,336.197 354.400,336.438 354.400 C 336.679 354.400,337.399 354.028,338.038 353.573 C 338.677 353.118,339.200 352.842,339.200 352.959 C 339.200 353.077,339.746 352.639,340.414 351.987 C 341.081 351.334,341.793 350.800,341.995 350.800 C 342.643 350.800,349.800 343.400,351.021 341.467 C 351.670 340.441,352.335 339.601,352.500 339.601 C 352.665 339.600,352.800 339.330,352.800 339.000 C 352.800 338.670,353.078 338.400,353.418 338.400 C 353.757 338.400,353.999 338.175,353.954 337.900 C 353.870 337.376,354.379 335.942,354.771 335.600 C 355.242 335.188,356.000 333.589,356.000 333.005 C 356.000 332.672,356.180 332.400,356.400 332.400 C 356.620 332.400,356.800 332.034,356.800 331.587 C 356.800 331.141,357.043 330.682,357.341 330.567 C 357.671 330.441,357.809 329.979,357.694 329.380 C 357.554 328.646,357.680 328.400,358.197 328.400 C 358.735 328.400,358.831 328.178,358.634 327.391 C 358.460 326.700,358.563 326.312,358.960 326.160 C 359.375 326.001,359.477 325.550,359.319 324.576 C 359.149 323.528,359.255 323.154,359.779 322.953 C 360.342 322.737,360.415 322.365,360.201 320.804 C 360.002 319.362,360.090 318.768,360.570 318.287 C 361.548 317.309,361.534 83.877,360.556 82.899 C 360.074 82.417,359.957 81.726,360.088 80.144 C 360.221 78.546,360.122 77.979,359.680 77.809 C 359.262 77.649,359.160 77.201,359.319 76.224 C 359.477 75.250,359.375 74.799,358.960 74.640 C 358.563 74.488,358.460 74.100,358.634 73.409 C 358.831 72.622,358.735 72.400,358.197 72.400 C 357.680 72.400,357.554 72.154,357.694 71.420 C 357.809 70.821,357.671 70.359,357.341 70.233 C 357.043 70.118,356.800 69.670,356.800 69.236 C 356.800 68.802,356.604 68.326,356.365 68.178 C 356.126 68.031,356.019 67.570,356.128 67.155 C 356.257 66.659,356.116 66.400,355.716 66.400 C 355.304 66.400,355.174 66.141,355.316 65.600 C 355.452 65.080,355.328 64.800,354.963 64.800 C 354.653 64.800,354.400 64.530,354.400 64.200 C 354.400 63.870,354.241 63.600,354.047 63.600 C 353.852 63.600,353.598 63.236,353.482 62.791 C 353.163 61.574,353.099 61.468,352.113 60.554 C 351.611 60.089,351.200 59.515,351.200 59.279 C 351.200 59.043,349.400 57.045,347.200 54.839 C 345.000 52.633,343.200 50.642,343.200 50.414 C 343.200 50.186,342.846 50.000,342.414 50.000 C 341.981 50.000,341.036 49.422,340.314 48.716 C 339.591 48.009,338.910 47.441,338.800 47.452 C 338.229 47.511,337.200 47.062,337.200 46.753 C 337.200 46.559,336.930 46.400,336.600 46.400 C 336.270 46.400,336.000 46.118,336.000 45.773 C 336.000 45.328,335.768 45.220,335.200 45.400 C 334.624 45.583,334.400 45.472,334.400 45.003 C 334.400 44.646,334.211 44.470,333.980 44.612 C 333.451 44.939,330.800 43.710,330.800 43.138 C 330.800 42.888,330.400 42.814,329.825 42.958 C 329.288 43.093,328.737 43.022,328.601 42.801 C 328.464 42.581,328.011 42.400,327.592 42.400 C 327.174 42.400,326.601 42.153,326.319 41.851 C 325.984 41.493,325.287 41.372,324.310 41.503 C 323.189 41.653,322.754 41.546,322.573 41.075 C 322.381 40.574,321.932 40.493,320.374 40.678 C 318.790 40.865,318.369 40.785,318.166 40.255 C 317.778 39.244,83.022 39.244,82.634 40.255 M257.233 75.787 C 261.101 76.110,264.566 76.489,264.933 76.630 C 265.543 76.864,265.600 78.579,265.600 96.843 L 265.600 116.800 250.900 116.814 C 239.959 116.825,235.637 116.966,234.000 117.368 C 221.597 120.410,219.926 124.363,220.095 150.243 L 220.200 166.200 241.784 166.304 C 253.654 166.360,263.519 166.559,263.705 166.745 C 263.891 166.931,263.866 168.235,263.650 169.642 C 263.433 171.049,263.060 173.820,262.819 175.800 C 262.579 177.780,262.216 180.660,262.012 182.200 C 261.808 183.740,261.438 186.620,261.190 188.600 C 260.942 190.580,260.583 193.370,260.392 194.800 C 260.201 196.230,259.831 199.200,259.570 201.400 C 259.308 203.600,258.885 206.840,258.629 208.600 L 258.165 211.800 239.183 212.000 L 220.200 212.200 220.099 269.100 L 219.997 326.000 197.279 326.000 C 180.142 326.000,174.442 325.882,174.080 325.520 C 173.711 325.151,173.600 311.947,173.600 268.520 L 173.600 212.000 154.400 212.000 L 135.200 212.000 135.200 189.204 L 135.200 166.408 154.300 166.304 L 173.400 166.200 173.654 146.800 C 173.930 125.719,174.100 123.398,175.988 114.800 C 180.716 93.277,198.594 78.082,222.600 75.184 C 226.585 74.703,248.898 75.091,257.233 75.787 " stroke="none" fill="#3b5b9b" fill-rule="evenodd"></path><path id="path1" d="M225.321 75.628 C 199.424 77.620,181.363 92.752,176.179 116.800 C 174.824 123.087,174.677 125.552,174.442 145.800 L 174.200 166.600 155.000 166.800 L 135.800 167.000 135.697 189.096 L 135.593 211.192 154.897 211.296 L 174.200 211.400 174.400 268.400 L 174.600 325.400 196.200 325.511 C 208.080 325.572,218.204 325.523,218.699 325.403 L 219.597 325.185 219.699 268.293 L 219.800 211.400 238.693 211.296 L 257.587 211.192 257.789 210.296 C 258.291 208.065,263.169 167.474,262.973 167.157 C 262.849 166.955,253.481 166.800,241.400 166.800 C 229.656 166.800,219.950 166.643,219.832 166.452 C 219.294 165.582,219.596 132.583,220.165 129.948 C 222.665 118.379,228.192 116.010,252.700 116.003 L 265.200 116.000 265.200 96.625 L 265.200 77.249 263.500 77.031 C 253.024 75.687,233.754 74.979,225.321 75.628 " stroke="none" fill="#fbfbfb" fill-rule="evenodd"></path><path id="path2" d="M79.600 40.224 C 79.600 40.699,79.952 40.819,81.069 40.724 C 83.179 40.546,83.317 39.600,81.233 39.600 C 80.020 39.600,79.600 39.761,79.600 40.224 M318.098 40.100 C 318.355 40.883,321.200 40.997,321.200 40.224 C 321.200 39.761,320.780 39.600,319.567 39.600 C 318.439 39.600,317.984 39.755,318.098 40.100 M75.600 41.025 C 75.600 41.487,75.931 41.618,76.869 41.525 C 78.703 41.344,78.841 40.400,77.033 40.400 C 76.000 40.400,75.600 40.575,75.600 41.025 M322.497 40.900 C 322.754 41.681,325.200 41.794,325.200 41.025 C 325.200 40.575,324.800 40.400,323.767 40.400 C 322.799 40.400,322.387 40.562,322.497 40.900 M72.400 41.600 C 72.400 41.820,71.860 42.000,71.200 42.000 C 70.540 42.000,70.000 42.180,70.000 42.400 C 70.000 42.620,69.640 42.800,69.200 42.800 C 68.760 42.800,68.400 42.980,68.400 43.200 C 68.400 43.420,68.040 43.600,67.600 43.600 C 67.156 43.600,66.800 43.867,66.800 44.200 C 66.800 45.002,67.297 44.956,69.000 44.000 C 69.783 43.560,70.768 43.200,71.189 43.200 C 71.609 43.200,72.050 43.043,72.168 42.852 C 72.286 42.660,72.927 42.395,73.592 42.262 C 75.153 41.949,75.158 41.200,73.600 41.200 C 72.940 41.200,72.400 41.380,72.400 41.600 M326.000 41.592 C 326.000 41.808,326.495 42.103,327.100 42.248 C 327.705 42.392,328.417 42.681,328.682 42.890 C 329.203 43.299,330.000 42.988,330.000 42.376 C 330.000 42.169,329.640 42.000,329.200 42.000 C 328.760 42.000,328.400 41.820,328.400 41.600 C 328.400 41.380,327.860 41.200,327.200 41.200 C 326.540 41.200,326.000 41.377,326.000 41.592 M330.800 43.171 C 330.800 43.539,333.014 44.800,333.661 44.800 C 333.848 44.800,334.000 44.530,334.000 44.200 C 334.000 43.867,333.644 43.600,333.200 43.600 C 332.760 43.600,332.400 43.420,332.400 43.200 C 332.400 42.980,332.040 42.800,331.600 42.800 C 331.160 42.800,330.800 42.967,330.800 43.171 M65.292 44.875 C 65.539 45.617,66.400 45.740,66.400 45.033 C 66.400 44.685,66.115 44.400,65.767 44.400 C 65.418 44.400,65.205 44.614,65.292 44.875 M334.400 45.033 C 334.400 45.740,335.261 45.617,335.508 44.875 C 335.595 44.614,335.382 44.400,335.033 44.400 C 334.685 44.400,334.400 44.685,334.400 45.033 M63.600 45.600 C 63.600 45.820,63.317 46.000,62.971 46.000 C 62.176 46.000,61.076 47.075,61.375 47.559 C 61.622 47.959,63.592 47.198,63.597 46.700 C 63.599 46.535,63.870 46.400,64.200 46.400 C 64.530 46.400,64.800 46.130,64.800 45.800 C 64.800 45.470,64.530 45.200,64.200 45.200 C 63.870 45.200,63.600 45.380,63.600 45.600 M336.000 45.800 C 336.000 46.130,336.270 46.400,336.600 46.400 C 336.930 46.400,337.201 46.535,337.203 46.700 C 337.208 47.198,339.178 47.959,339.425 47.559 C 339.724 47.075,338.624 46.000,337.829 46.000 C 337.483 46.000,337.200 45.820,337.200 45.600 C 337.200 45.380,336.930 45.200,336.600 45.200 C 336.270 45.200,336.000 45.470,336.000 45.800 M58.900 48.610 C 57.777 49.809,57.762 50.130,58.843 49.786 C 59.808 49.480,61.200 48.372,61.200 47.911 C 61.200 47.254,59.759 47.692,58.900 48.610 M339.600 47.887 C 339.600 48.352,341.676 50.000,342.262 50.000 C 343.029 50.000,342.935 49.698,341.818 48.582 C 340.894 47.658,339.600 47.253,339.600 47.887 M53.300 53.426 C 50.145 56.641,49.486 57.600,50.428 57.600 C 50.940 57.600,57.600 50.876,57.600 50.359 C 57.600 49.431,56.333 50.335,53.300 53.426 M343.200 50.414 C 343.200 50.642,345.000 52.633,347.200 54.839 C 349.400 57.045,351.200 59.017,351.200 59.221 C 351.200 59.697,352.482 61.200,352.889 61.200 C 353.615 61.200,353.110 59.837,352.000 58.800 C 351.340 58.183,350.800 57.479,350.800 57.234 C 350.800 56.677,344.159 50.000,343.606 50.000 C 343.383 50.000,343.200 50.186,343.200 50.414 M48.500 59.010 C 47.623 59.947,47.286 61.200,47.911 61.200 C 48.372 61.200,49.480 59.808,49.786 58.843 C 50.135 57.743,49.624 57.810,48.500 59.010 M46.500 61.799 C 46.225 62.111,46.000 62.644,46.000 62.983 C 46.000 63.322,45.820 63.600,45.600 63.600 C 45.380 63.600,45.200 63.870,45.200 64.200 C 45.200 64.530,45.470 64.800,45.800 64.800 C 46.130 64.800,46.400 64.530,46.400 64.200 C 46.400 63.870,46.559 63.600,46.753 63.600 C 47.044 63.600,47.328 62.948,47.619 61.610 C 47.718 61.154,46.956 61.283,46.500 61.799 M353.114 61.420 C 352.837 61.697,353.696 63.593,354.100 63.597 C 354.265 63.599,354.400 63.870,354.400 64.200 C 354.400 64.530,354.670 64.800,355.000 64.800 C 355.330 64.800,355.600 64.530,355.600 64.200 C 355.600 63.870,355.420 63.600,355.200 63.600 C 354.980 63.600,354.800 63.317,354.800 62.971 C 354.800 62.014,353.612 60.921,353.114 61.420 M44.400 65.767 C 44.400 66.115,44.685 66.400,45.033 66.400 C 45.382 66.400,45.595 66.186,45.508 65.925 C 45.261 65.183,44.400 65.060,44.400 65.767 M355.200 65.800 C 355.200 66.130,355.470 66.400,355.800 66.400 C 356.130 66.400,356.400 66.130,356.400 65.800 C 356.400 65.470,356.130 65.200,355.800 65.200 C 355.470 65.200,355.200 65.470,355.200 65.800 M43.600 67.600 C 43.600 68.040,43.420 68.400,43.200 68.400 C 42.980 68.400,42.800 68.850,42.800 69.400 C 42.800 70.543,43.517 70.749,43.842 69.700 C 43.961 69.315,44.225 68.687,44.429 68.305 C 44.964 67.305,44.887 66.800,44.200 66.800 C 43.867 66.800,43.600 67.156,43.600 67.600 M356.000 67.205 C 356.000 67.428,356.167 67.923,356.371 68.305 C 356.575 68.687,356.839 69.315,356.958 69.700 C 357.283 70.749,358.000 70.543,358.000 69.400 C 358.000 68.850,357.820 68.400,357.600 68.400 C 357.380 68.400,357.200 68.040,357.200 67.600 C 357.200 67.156,356.933 66.800,356.600 66.800 C 356.270 66.800,356.000 66.982,356.000 67.205 M42.000 71.600 C 42.000 72.116,42.203 72.399,42.500 72.300 C 42.775 72.208,43.000 71.893,43.000 71.600 C 43.000 71.307,42.775 70.992,42.500 70.900 C 42.203 70.801,42.000 71.084,42.000 71.600 M357.600 71.600 C 357.600 72.044,357.867 72.400,358.200 72.400 C 358.533 72.400,358.800 72.044,358.800 71.600 C 358.800 71.156,358.533 70.800,358.200 70.800 C 357.867 70.800,357.600 71.156,357.600 71.600 M41.200 74.000 C 41.200 74.516,41.403 74.799,41.700 74.700 C 41.975 74.608,42.200 74.293,42.200 74.000 C 42.200 73.707,41.975 73.392,41.700 73.300 C 41.403 73.201,41.200 73.484,41.200 74.000 M358.600 73.600 C 358.308 74.072,358.687 74.800,359.224 74.800 C 359.431 74.800,359.600 74.440,359.600 74.000 C 359.600 73.156,359.018 72.924,358.600 73.600 M40.400 76.833 C 40.400 78.364,41.342 78.226,41.527 76.669 C 41.616 75.911,41.471 75.600,41.027 75.600 C 40.593 75.600,40.400 75.980,40.400 76.833 M359.273 76.669 C 359.458 78.226,360.400 78.364,360.400 76.833 C 360.400 75.980,360.207 75.600,359.773 75.600 C 359.329 75.600,359.184 75.911,359.273 76.669 M39.600 80.800 C 39.600 82.755,40.073 83.430,40.557 82.167 C 41.047 80.892,40.825 78.800,40.200 78.800 C 39.747 78.800,39.600 79.289,39.600 80.800 M360.000 80.367 C 360.000 82.139,360.316 83.200,360.843 83.200 C 361.039 83.200,361.200 82.210,361.200 81.000 C 361.200 79.311,361.061 78.800,360.600 78.800 C 360.169 78.800,360.000 79.241,360.000 80.367 M39.600 320.000 C 39.600 321.511,39.747 322.000,40.200 322.000 C 40.825 322.000,41.047 319.908,40.557 318.633 C 40.073 317.370,39.600 318.045,39.600 320.000 M360.164 318.999 C 359.878 320.139,360.179 321.200,360.787 321.200 C 361.014 321.200,361.200 320.480,361.200 319.600 C 361.200 317.822,360.554 317.447,360.164 318.999 M40.400 323.967 C 40.400 324.820,40.593 325.200,41.027 325.200 C 41.471 325.200,41.616 324.889,41.527 324.131 C 41.342 322.574,40.400 322.436,40.400 323.967 M359.467 323.067 C 358.943 323.590,359.195 325.200,359.800 325.200 C 360.200 325.200,360.400 324.800,360.400 324.000 C 360.400 322.853,360.040 322.493,359.467 323.067 M41.200 326.800 C 41.200 327.316,41.403 327.599,41.700 327.500 C 41.975 327.408,42.200 327.093,42.200 326.800 C 42.200 326.507,41.975 326.192,41.700 326.100 C 41.403 326.001,41.200 326.284,41.200 326.800 M358.600 326.400 C 358.308 326.872,358.687 327.600,359.224 327.600 C 359.431 327.600,359.600 327.240,359.600 326.800 C 359.600 325.956,359.018 325.724,358.600 326.400 M42.000 329.200 C 42.000 329.644,42.267 330.000,42.600 330.000 C 42.933 330.000,43.200 329.644,43.200 329.200 C 43.200 328.756,42.933 328.400,42.600 328.400 C 42.267 328.400,42.000 328.756,42.000 329.200 M357.600 329.200 C 357.600 329.644,357.867 330.000,358.200 330.000 C 358.533 330.000,358.800 329.644,358.800 329.200 C 358.800 328.756,358.533 328.400,358.200 328.400 C 357.867 328.400,357.600 328.756,357.600 329.200 M42.800 331.367 C 42.800 331.935,42.980 332.400,43.200 332.400 C 43.420 332.400,43.600 332.760,43.600 333.200 C 43.600 333.640,43.780 334.000,44.000 334.000 C 44.220 334.000,44.400 334.360,44.400 334.800 C 44.400 335.240,44.580 335.600,44.800 335.600 C 45.020 335.600,45.200 335.883,45.200 336.229 C 45.200 336.574,45.469 337.126,45.797 337.454 C 46.487 338.144,47.452 337.791,46.862 337.064 C 46.097 336.121,44.800 333.558,44.800 332.988 C 44.800 332.665,44.633 332.400,44.428 332.400 C 44.223 332.400,43.998 332.009,43.928 331.531 C 43.739 330.251,42.800 330.114,42.800 331.367 M357.067 330.667 C 356.920 330.813,356.800 331.263,356.800 331.667 C 356.800 332.070,356.620 332.400,356.400 332.400 C 356.180 332.400,356.000 332.672,356.000 333.005 C 356.000 333.561,355.278 335.122,354.800 335.600 C 354.135 336.265,353.661 337.591,354.011 337.807 C 354.519 338.121,355.600 337.047,355.600 336.229 C 355.600 335.883,355.780 335.600,356.000 335.600 C 356.220 335.600,356.400 335.240,356.400 334.800 C 356.400 334.360,356.580 334.000,356.800 334.000 C 357.020 334.000,357.200 333.640,357.200 333.200 C 357.200 332.760,357.380 332.400,357.600 332.400 C 357.820 332.400,358.000 331.950,358.000 331.400 C 358.000 330.429,357.611 330.123,357.067 330.667 M46.800 339.000 C 46.800 339.330,46.980 339.600,47.200 339.600 C 47.420 339.600,47.600 339.876,47.600 340.213 C 47.600 340.911,50.336 343.798,50.675 343.458 C 50.941 343.193,48.730 339.602,48.300 339.601 C 48.135 339.600,48.000 339.330,48.000 339.000 C 48.000 338.670,47.730 338.400,47.400 338.400 C 47.070 338.400,46.800 338.670,46.800 339.000 M352.800 339.000 C 352.800 339.330,352.665 339.600,352.500 339.601 C 352.335 339.601,351.670 340.441,351.021 341.467 C 349.851 343.319,342.655 350.800,342.044 350.800 C 341.620 350.800,339.600 352.546,339.600 352.913 C 339.600 353.618,340.978 353.094,342.000 352.000 C 342.617 351.340,343.322 350.800,343.567 350.800 C 344.144 350.800,350.000 344.951,350.000 344.375 C 350.000 344.134,350.720 343.246,351.600 342.400 C 352.480 341.554,353.200 340.579,353.200 340.231 C 353.200 339.884,353.380 339.600,353.600 339.600 C 353.820 339.600,354.000 339.330,354.000 339.000 C 354.000 338.670,353.730 338.400,353.400 338.400 C 353.070 338.400,352.800 338.670,352.800 339.000 M50.800 344.406 C 50.800 344.961,56.675 350.800,57.233 350.800 C 57.478 350.800,58.183 351.340,58.800 352.000 C 59.822 353.094,61.200 353.618,61.200 352.913 C 61.200 352.544,59.179 350.800,58.751 350.800 C 58.573 350.800,56.900 349.270,55.034 347.400 C 51.835 344.193,50.800 343.462,50.800 344.406 M61.403 353.196 C 61.081 353.716,62.141 354.800,62.971 354.800 C 63.317 354.800,63.600 354.980,63.600 355.200 C 63.600 355.420,63.870 355.600,64.200 355.600 C 64.530 355.600,64.800 355.330,64.800 355.000 C 64.800 354.670,64.603 354.400,64.362 354.400 C 64.121 354.400,63.413 354.037,62.790 353.593 C 62.083 353.090,61.561 352.940,61.403 353.196 M338.000 353.613 C 337.450 354.036,336.775 354.386,336.500 354.391 C 335.782 354.404,335.880 355.600,336.600 355.600 C 336.930 355.600,337.200 355.420,337.200 355.200 C 337.200 354.980,337.483 354.800,337.829 354.800 C 338.690 354.800,339.797 353.636,339.354 353.196 C 339.149 352.992,338.578 353.168,338.000 353.613 M65.467 355.467 C 65.006 355.927,65.175 356.400,65.800 356.400 C 66.130 356.400,66.400 356.130,66.400 355.800 C 66.400 355.175,65.927 355.006,65.467 355.467 M334.400 355.767 C 334.400 356.115,334.685 356.400,335.033 356.400 C 335.740 356.400,335.617 355.539,334.875 355.292 C 334.614 355.205,334.400 355.418,334.400 355.767 M66.800 356.600 C 66.800 356.933,67.156 357.200,67.600 357.200 C 68.040 357.200,68.400 357.380,68.400 357.600 C 68.400 357.820,68.760 358.000,69.200 358.000 C 69.640 358.000,70.000 358.180,70.000 358.400 C 70.000 358.620,70.540 358.800,71.200 358.800 C 71.860 358.800,72.400 358.980,72.400 359.200 C 72.400 359.420,72.850 359.600,73.400 359.600 C 74.543 359.600,74.749 358.883,73.700 358.558 C 73.315 358.439,72.687 358.175,72.305 357.971 C 71.923 357.767,71.344 357.600,71.018 357.600 C 70.691 357.600,69.783 357.240,69.000 356.800 C 67.297 355.844,66.800 355.798,66.800 356.600 M331.800 356.800 C 331.140 357.208,330.283 357.555,329.895 357.571 C 329.507 357.587,328.877 357.767,328.495 357.971 C 328.113 358.175,327.485 358.439,327.100 358.558 C 326.051 358.883,326.257 359.600,327.400 359.600 C 327.950 359.600,328.400 359.420,328.400 359.200 C 328.400 358.980,328.940 358.800,329.600 358.800 C 330.260 358.800,330.800 358.620,330.800 358.400 C 330.800 358.180,331.160 358.000,331.600 358.000 C 332.040 358.000,332.400 357.820,332.400 357.600 C 332.400 357.380,332.760 357.200,333.200 357.200 C 333.644 357.200,334.000 356.933,334.000 356.600 C 334.000 355.817,333.285 355.882,331.800 356.800 M74.800 359.800 C 74.800 360.219,75.222 360.400,76.200 360.400 C 77.649 360.400,78.075 359.868,76.967 359.443 C 75.844 359.012,74.800 359.184,74.800 359.800 M323.467 359.467 C 322.869 360.064,323.276 360.400,324.600 360.400 C 325.578 360.400,326.000 360.219,326.000 359.800 C 326.000 359.188,324.007 358.926,323.467 359.467 M79.067 360.267 C 78.431 360.902,78.920 361.200,80.600 361.200 C 82.385 361.200,82.983 360.709,81.767 360.243 C 80.926 359.920,79.400 359.934,79.067 360.267 M318.700 360.267 C 317.282 360.656,318.060 361.200,320.033 361.200 C 321.481 361.200,322.019 361.056,321.903 360.700 C 321.732 360.180,319.914 359.934,318.700 360.267 " stroke="none" fill="#0f1f32" fill-rule="evenodd"></path><path id="path3" d="M229.500 75.099 C 231.975 75.169,236.025 75.169,238.500 75.099 C 240.975 75.028,238.950 74.971,234.000 74.971 C 229.050 74.971,227.025 75.028,229.500 75.099 M219.800 75.600 L 218.600 75.905 219.800 75.905 C 220.460 75.905,221.540 75.768,222.200 75.600 L 223.400 75.295 222.200 75.295 C 221.540 75.295,220.460 75.432,219.800 75.600 M249.800 75.598 C 251.824 75.934,257.474 76.127,257.167 75.850 C 257.075 75.767,254.930 75.602,252.400 75.483 C 249.315 75.338,248.459 75.376,249.800 75.598 M215.600 76.400 L 214.600 76.720 215.600 76.732 C 216.150 76.738,216.960 76.589,217.400 76.400 L 218.200 76.056 217.400 76.068 C 216.960 76.074,216.150 76.224,215.600 76.400 M260.400 76.420 C 261.390 76.597,262.830 76.733,263.600 76.724 L 265.000 76.708 263.400 76.377 C 262.520 76.195,261.080 76.058,260.200 76.073 L 258.600 76.100 260.400 76.420 M212.200 77.200 L 211.400 77.544 212.200 77.566 C 212.640 77.578,213.270 77.413,213.600 77.200 C 214.395 76.686,213.396 76.686,212.200 77.200 M209.600 78.000 C 209.067 78.345,209.067 78.388,209.600 78.388 C 209.930 78.388,210.470 78.213,210.800 78.000 C 211.333 77.655,211.333 77.612,210.800 77.612 C 210.470 77.612,209.930 77.787,209.600 78.000 M200.661 81.846 C 199.594 82.401,198.802 82.935,198.900 83.033 C 199.087 83.221,202.800 81.252,202.800 80.966 C 202.800 80.732,202.810 80.728,200.661 81.846 M194.385 86.029 L 193.000 87.258 194.500 86.181 C 195.826 85.230,196.257 84.800,195.885 84.800 C 195.822 84.800,195.147 85.353,194.385 86.029 M189.146 90.703 C 187.280 92.626,185.347 94.830,184.852 95.600 L 183.951 97.000 185.076 95.617 C 185.694 94.857,187.688 92.715,189.508 90.858 C 191.327 89.001,192.753 87.420,192.677 87.344 C 192.601 87.268,191.012 88.779,189.146 90.703 M181.020 101.560 C 180.452 102.682,180.064 103.600,180.159 103.600 C 180.451 103.600,182.423 99.890,182.233 99.699 C 182.134 99.601,181.589 100.438,181.020 101.560 M177.000 111.200 C 176.850 111.673,176.817 112.150,176.927 112.260 C 177.037 112.370,177.250 112.073,177.400 111.600 C 177.550 111.127,177.583 110.650,177.473 110.540 C 177.363 110.430,177.150 110.727,177.000 111.200 M176.200 113.600 C 176.050 114.073,176.017 114.550,176.127 114.660 C 176.237 114.770,176.450 114.473,176.600 114.000 C 176.750 113.527,176.783 113.050,176.673 112.940 C 176.563 112.830,176.350 113.127,176.200 113.600 M175.400 117.200 C 175.248 117.891,175.214 118.547,175.324 118.657 C 175.434 118.767,175.648 118.291,175.800 117.600 C 175.952 116.909,175.986 116.253,175.876 116.143 C 175.766 116.033,175.552 116.509,175.400 117.200 M252.000 116.400 L 238.600 116.616 252.100 116.708 C 260.895 116.768,265.600 116.661,265.600 116.400 C 265.600 116.180,265.555 116.041,265.500 116.092 C 265.445 116.142,259.370 116.281,252.000 116.400 M233.000 117.200 L 232.200 117.544 233.000 117.532 C 233.440 117.526,234.250 117.376,234.800 117.200 L 235.800 116.880 234.800 116.868 C 234.250 116.862,233.440 117.011,233.000 117.200 M228.519 118.824 C 226.170 119.963,222.368 123.560,222.421 124.593 C 222.433 124.817,222.739 124.550,223.102 124.000 C 224.517 121.856,227.343 119.591,229.653 118.748 C 230.944 118.278,232.000 117.827,232.000 117.746 C 232.000 117.352,230.768 117.733,228.519 118.824 M174.600 121.600 C 174.445 122.728,174.408 123.741,174.518 123.851 C 174.628 123.961,174.845 123.128,175.000 122.000 C 175.155 120.872,175.192 119.859,175.082 119.749 C 174.972 119.639,174.755 120.472,174.600 121.600 M174.043 126.600 C 173.731 128.269,173.415 166.401,173.713 166.400 C 174.363 166.400,174.405 164.898,174.300 145.600 C 174.241 134.710,174.125 126.160,174.043 126.600 M220.276 130.410 C 220.130 130.955,220.027 131.850,220.046 132.400 C 220.071 133.118,220.184 132.957,220.449 131.827 C 220.855 130.095,220.700 128.825,220.276 130.410 M263.068 166.828 C 263.303 167.063,263.434 168.098,263.360 169.128 L 263.224 171.000 263.612 169.200 C 264.036 167.234,263.893 166.400,263.133 166.400 C 262.783 166.400,262.764 166.524,263.068 166.828 M262.600 174.400 C 262.444 175.747,262.406 176.939,262.516 177.049 C 262.626 177.159,262.844 176.147,263.000 174.800 C 263.156 173.453,263.194 172.261,263.084 172.151 C 262.974 172.041,262.756 173.053,262.600 174.400 M261.785 180.585 C 261.630 181.823,261.600 182.934,261.719 183.052 C 261.837 183.170,262.061 182.254,262.215 181.015 C 262.370 179.777,262.400 178.666,262.281 178.548 C 262.163 178.430,261.939 179.346,261.785 180.585 M260.985 186.985 C 260.830 188.223,260.800 189.334,260.919 189.452 C 261.037 189.570,261.261 188.654,261.415 187.415 C 261.570 186.177,261.600 185.066,261.481 184.948 C 261.363 184.830,261.139 185.746,260.985 186.985 M260.185 193.385 C 260.030 194.623,259.993 195.727,260.103 195.837 C 260.213 195.947,260.430 195.023,260.585 193.785 C 260.739 192.546,260.776 191.443,260.666 191.333 C 260.556 191.223,260.339 192.146,260.185 193.385 M259.385 199.785 C 259.230 201.023,259.193 202.127,259.303 202.237 C 259.413 202.347,259.630 201.423,259.785 200.185 C 259.939 198.946,259.976 197.843,259.866 197.733 C 259.756 197.623,259.539 198.546,259.385 199.785 M258.585 206.185 C 258.430 207.423,258.393 208.527,258.503 208.637 C 258.613 208.747,258.830 207.823,258.985 206.585 C 259.139 205.346,259.176 204.243,259.066 204.133 C 258.956 204.023,258.739 204.946,258.585 206.185 M257.862 210.983 C 257.653 211.527,255.400 211.600,238.813 211.600 C 228.466 211.600,220.000 211.735,220.000 211.900 C 220.000 212.556,258.012 212.034,258.265 211.375 C 258.394 211.040,258.409 210.675,258.299 210.565 C 258.189 210.455,257.992 210.643,257.862 210.983 M135.200 211.700 C 135.200 211.865,143.840 212.000,154.400 212.000 L 173.600 212.000 173.600 268.520 C 173.600 311.947,173.711 325.151,174.080 325.520 C 174.624 326.064,220.000 326.242,220.000 325.700 C 220.000 325.535,209.740 325.448,197.200 325.506 L 174.400 325.613 174.400 269.055 C 174.400 222.501,174.306 212.420,173.868 212.057 C 173.256 211.549,135.200 211.198,135.200 211.700 " stroke="none" fill="#9caccc" fill-rule="evenodd"></path><path id="path4" d="M222.200 75.587 C 221.540 75.747,222.800 75.792,225.000 75.685 C 227.200 75.579,229.075 75.426,229.167 75.346 C 229.470 75.080,223.422 75.289,222.200 75.587 M238.833 75.346 C 238.925 75.426,241.790 75.576,245.200 75.679 C 248.632 75.783,250.507 75.733,249.400 75.568 C 247.367 75.265,238.529 75.079,238.833 75.346 M217.400 76.419 C 216.842 76.671,217.085 76.707,218.200 76.538 C 219.080 76.404,219.875 76.228,219.967 76.147 C 220.310 75.844,218.168 76.071,217.400 76.419 M254.033 76.146 C 254.125 76.226,255.910 76.388,258.000 76.506 C 260.605 76.654,261.234 76.618,260.000 76.390 C 258.190 76.057,253.723 75.874,254.033 76.146 M213.600 77.206 C 213.178 77.482,213.415 77.523,214.400 77.342 C 216.125 77.025,216.451 76.798,215.167 76.806 C 214.635 76.809,213.930 76.989,213.600 77.206 M264.300 77.062 L 265.200 77.256 265.200 96.628 L 265.200 116.000 252.300 116.043 C 245.205 116.067,238.320 116.202,237.000 116.343 C 235.680 116.485,241.350 116.545,249.600 116.478 C 257.850 116.411,264.827 116.281,265.104 116.189 C 265.502 116.057,265.586 111.917,265.504 96.511 L 265.400 77.000 264.400 76.934 C 263.519 76.877,263.507 76.892,264.300 77.062 M207.300 79.034 C 206.585 79.346,206.000 79.690,206.000 79.798 C 206.000 79.976,209.176 78.851,209.567 78.535 C 209.995 78.188,208.462 78.526,207.300 79.034 M200.700 82.229 C 199.205 83.040,199.296 83.378,200.800 82.600 C 201.460 82.259,202.000 81.894,202.000 81.790 C 202.000 81.532,201.957 81.547,200.700 82.229 M195.708 85.310 C 194.117 86.460,192.812 87.566,192.808 87.770 C 192.803 87.973,193.205 87.767,193.700 87.313 C 194.195 86.858,195.665 85.746,196.966 84.843 C 198.268 83.939,199.168 83.205,198.966 83.210 C 198.765 83.216,197.298 84.161,195.708 85.310 M189.186 91.100 L 187.000 93.400 189.300 91.214 C 191.437 89.182,191.783 88.800,191.486 88.800 C 191.424 88.800,190.389 89.835,189.186 91.100 M183.814 97.500 C 183.047 98.545,182.415 99.565,182.410 99.767 C 182.404 99.968,182.456 100.058,182.523 99.967 C 183.883 98.131,185.552 95.600,185.403 95.600 C 185.296 95.600,184.580 96.455,183.814 97.500 M181.400 101.600 C 181.059 102.260,180.869 102.800,180.979 102.800 C 181.089 102.800,181.459 102.260,181.800 101.600 C 182.141 100.940,182.331 100.400,182.221 100.400 C 182.111 100.400,181.741 100.940,181.400 101.600 M176.249 114.615 C 176.112 114.973,176.018 115.656,176.041 116.133 C 176.067 116.681,176.203 116.486,176.410 115.603 C 176.760 114.116,176.665 113.533,176.249 114.615 M231.800 117.200 C 231.296 117.417,231.222 117.544,231.600 117.544 C 231.930 117.544,232.560 117.389,233.000 117.200 C 233.504 116.983,233.578 116.856,233.200 116.856 C 232.870 116.856,232.240 117.011,231.800 117.200 M175.400 118.800 C 175.248 119.491,175.207 120.141,175.309 120.242 C 175.411 120.344,175.609 119.853,175.750 119.150 C 176.083 117.483,175.760 117.160,175.400 118.800 M224.558 121.300 C 223.331 122.629,221.897 124.522,222.663 123.800 C 223.517 122.995,226.088 120.000,225.925 120.000 C 225.833 120.000,225.217 120.585,224.558 121.300 M174.672 123.404 C 174.527 124.282,174.430 125.630,174.455 126.400 C 174.484 127.278,174.629 126.830,174.844 125.200 C 175.224 122.315,175.087 120.889,174.672 123.404 M220.250 129.250 C 219.917 130.917,220.240 131.240,220.600 129.600 C 220.752 128.909,220.793 128.259,220.691 128.158 C 220.589 128.056,220.391 128.547,220.250 129.250 M219.714 133.800 C 219.717 134.900,219.795 135.303,219.887 134.695 C 219.979 134.086,219.977 133.186,219.882 132.695 C 219.787 132.203,219.711 132.700,219.714 133.800 M219.792 151.800 L 219.800 166.600 241.200 166.701 C 260.753 166.793,262.643 166.860,263.100 167.477 C 263.375 167.849,263.600 167.975,263.600 167.756 C 263.600 166.452,262.743 166.400,241.325 166.400 L 220.010 166.400 219.897 151.700 L 219.785 137.000 219.792 151.800 M154.800 166.402 C 144.130 166.521,135.353 166.660,135.297 166.710 C 135.240 166.759,135.240 176.835,135.297 189.100 L 135.400 211.400 154.364 211.504 C 168.736 211.583,173.473 211.728,173.929 212.104 C 174.421 212.510,174.494 212.491,174.332 212.000 C 174.160 211.480,171.575 211.386,154.863 211.296 L 135.593 211.192 135.697 189.096 L 135.800 167.000 154.784 166.896 C 166.636 166.831,173.917 166.643,174.164 166.396 C 174.382 166.178,174.479 166.042,174.380 166.092 C 174.281 166.143,165.470 166.283,154.800 166.402 M262.629 171.629 C 262.476 172.979,262.433 174.166,262.533 174.267 C 262.634 174.367,262.844 173.347,263.000 172.000 C 263.156 170.653,263.199 169.466,263.095 169.362 C 262.991 169.258,262.781 170.278,262.629 171.629 M261.846 177.846 C 261.700 179.093,261.659 180.193,261.757 180.290 C 261.854 180.388,262.061 179.454,262.215 178.215 C 262.370 176.977,262.410 175.877,262.305 175.771 C 262.199 175.666,261.993 176.599,261.846 177.846 M261.046 184.246 C 260.900 185.493,260.859 186.593,260.957 186.690 C 261.054 186.788,261.261 185.854,261.415 184.615 C 261.570 183.377,261.610 182.277,261.505 182.171 C 261.399 182.066,261.193 182.999,261.046 184.246 M260.246 190.646 C 260.100 191.893,260.059 192.993,260.157 193.090 C 260.254 193.188,260.461 192.254,260.615 191.015 C 260.770 189.777,260.810 188.677,260.705 188.571 C 260.599 188.466,260.393 189.399,260.246 190.646 M259.446 197.046 C 259.300 198.293,259.259 199.393,259.357 199.490 C 259.454 199.588,259.661 198.654,259.815 197.415 C 259.970 196.177,260.010 195.077,259.905 194.971 C 259.799 194.866,259.593 195.799,259.446 197.046 M258.646 203.446 C 258.500 204.693,258.459 205.793,258.557 205.890 C 258.654 205.988,258.861 205.054,259.015 203.815 C 259.170 202.577,259.210 201.477,259.105 201.371 C 258.999 201.266,258.793 202.199,258.646 203.446 M258.058 208.800 C 257.932 211.322,259.016 211.183,238.579 211.296 L 219.800 211.400 219.699 268.177 C 219.619 312.966,219.492 325.029,219.099 325.308 C 218.731 325.568,218.757 325.618,219.200 325.497 C 219.729 325.353,219.812 318.618,219.901 268.467 L 220.003 211.600 238.787 211.600 C 259.866 211.600,258.675 211.778,258.288 208.682 L 258.128 207.400 258.058 208.800 " stroke="none" fill="#b4bcd4" fill-rule="evenodd"></path></g></svg>