<svg id="svg" version="1.1" xmlns="http://www.w3.org/2000/svg" xmlns:xlink="http://www.w3.org/1999/xlink" width="400" height="400" viewBox="0, 0, 400,400"><g id="svgg"><path id="path0" d="M157.600 78.383 C 136.762 79.038,125.690 81.315,113.492 87.453 C 101.020 93.729,89.798 106.237,84.828 119.400 C 84.330 120.720,83.769 122.160,83.581 122.600 C 82.323 125.554,81.084 130.819,79.630 139.400 C 77.674 150.942,77.681 246.250,79.639 259.600 C 82.728 280.664,90.284 295.358,103.400 305.807 C 104.500 306.683,105.490 307.504,105.600 307.630 C 110.736 313.537,129.235 319.553,147.600 321.290 C 155.176 322.006,242.834 322.003,251.200 321.287 C 274.276 319.310,288.095 314.121,299.917 302.992 C 313.241 290.449,318.976 276.875,321.290 252.400 C 322.021 244.665,322.021 153.482,321.290 146.600 C 318.788 123.050,313.744 110.862,301.424 98.600 C 290.873 88.099,280.118 82.883,263.000 79.965 C 253.916 78.417,188.005 77.427,157.600 78.383 M247.400 100.603 C 268.404 101.776,277.864 105.174,286.956 114.812 C 292.745 120.949,295.178 125.879,298.004 137.200 C 300.436 146.944,301.050 245.181,298.767 259.200 C 294.962 282.557,283.218 294.421,259.600 298.766 C 248.095 300.883,151.530 300.868,140.400 298.748 C 119.748 294.813,107.685 284.782,103.187 267.800 C 103.012 267.140,102.605 265.610,102.283 264.400 C 100.352 257.158,99.999 247.421,100.011 201.800 C 100.024 156.757,100.471 144.152,102.345 135.998 C 105.995 120.121,115.882 108.707,129.890 104.200 C 138.153 101.542,139.606 101.306,152.000 100.604 C 165.161 99.859,234.069 99.858,247.400 100.603 M262.000 120.767 C 256.413 121.866,251.743 126.789,250.745 132.630 C 248.391 146.408,265.320 155.233,275.276 145.418 C 285.588 135.252,276.275 117.960,262.000 120.767 M190.800 138.062 C 186.994 138.858,180.530 140.516,179.000 141.089 C 167.657 145.335,158.207 152.155,151.132 161.200 C 149.841 162.850,148.598 164.428,148.370 164.707 C 147.892 165.291,144.000 171.984,144.000 172.222 C 144.000 172.309,143.492 173.509,142.870 174.890 C 140.975 179.103,139.847 182.694,138.818 187.800 C 138.552 189.120,138.169 190.955,137.967 191.877 C 137.765 192.800,137.604 196.310,137.608 199.677 C 137.641 225.755,153.460 248.939,177.600 258.289 C 181.295 259.720,183.862 260.395,191.731 262.005 C 194.248 262.520,205.757 262.515,208.480 261.997 C 215.480 260.667,218.894 259.820,221.400 258.791 C 221.840 258.610,223.010 258.134,224.000 257.733 C 242.637 250.186,257.354 232.485,261.193 213.000 C 261.453 211.680,261.831 209.845,262.033 208.923 C 262.509 206.747,262.509 193.253,262.033 191.077 C 261.831 190.155,261.453 188.320,261.192 187.000 C 257.779 169.706,245.153 152.995,229.300 144.788 C 222.196 141.111,218.717 139.946,209.600 138.193 C 206.187 137.536,193.729 137.450,190.800 138.062 M205.827 159.600 C 209.739 160.259,212.425 160.916,212.642 161.268 C 212.755 161.451,213.138 161.600,213.494 161.600 C 213.850 161.600,215.685 162.346,217.571 163.257 C 245.285 176.646,249.098 213.900,224.683 232.736 C 212.146 242.408,194.506 243.631,180.224 235.818 C 163.465 226.650,154.496 203.823,161.199 187.400 C 161.379 186.960,161.827 185.790,162.195 184.800 C 168.406 168.100,188.251 156.639,205.827 159.600 " stroke="none" fill="#fbfafa" fill-rule="evenodd"></path><path id="path1" d="M100.400 36.000 C 100.400 36.222,99.333 36.400,98.000 36.400 C 96.667 36.400,95.600 36.578,95.600 36.800 C 95.600 37.029,94.400 37.200,92.800 37.200 C 91.200 37.200,90.000 37.371,90.000 37.600 C 90.000 37.820,89.280 38.000,88.400 38.000 C 87.520 38.000,86.800 38.180,86.800 38.400 C 86.800 38.620,86.260 38.800,85.600 38.800 C 84.940 38.800,84.400 38.980,84.400 39.200 C 84.400 39.420,84.040 39.600,83.600 39.600 C 83.160 39.600,82.800 39.780,82.800 40.000 C 82.800 40.220,82.080 40.400,81.200 40.400 C 80.320 40.400,79.600 40.580,79.600 40.800 C 79.600 41.020,79.240 41.200,78.800 41.200 C 78.360 41.200,78.000 41.380,78.000 41.600 C 78.000 41.820,77.640 42.000,77.200 42.000 C 76.760 42.000,76.400 42.180,76.400 42.400 C 76.400 42.620,76.040 42.800,75.600 42.800 C 75.160 42.800,74.800 42.980,74.800 43.200 C 74.800 43.420,74.440 43.600,74.000 43.600 C 73.560 43.600,73.200 43.780,73.200 44.000 C 73.200 44.220,72.840 44.400,72.400 44.400 C 71.960 44.400,71.600 44.580,71.600 44.800 C 71.600 45.020,71.280 45.200,70.888 45.200 C 70.497 45.200,69.917 45.560,69.600 46.000 C 69.283 46.440,68.743 46.800,68.400 46.800 C 68.057 46.800,67.517 47.160,67.200 47.600 C 66.883 48.040,66.375 48.400,66.072 48.400 C 65.769 48.400,65.017 48.940,64.400 49.600 C 63.783 50.260,63.067 50.800,62.808 50.800 C 62.549 50.800,61.646 51.520,60.800 52.400 C 59.954 53.280,59.056 54.000,58.803 54.000 C 58.210 54.000,57.200 55.008,57.200 55.600 C 57.200 56.190,56.190 57.200,55.600 57.200 C 55.008 57.200,54.000 58.210,54.000 58.803 C 54.000 59.056,53.280 59.954,52.400 60.800 C 51.520 61.646,50.800 62.549,50.800 62.808 C 50.800 63.067,50.260 63.783,49.600 64.400 C 48.940 65.017,48.400 65.769,48.400 66.072 C 48.400 66.375,48.040 66.883,47.600 67.200 C 47.160 67.517,46.800 68.057,46.800 68.400 C 46.800 68.743,46.440 69.283,46.000 69.600 C 45.560 69.917,45.200 70.497,45.200 70.888 C 45.200 71.280,45.020 71.600,44.800 71.600 C 44.580 71.600,44.400 71.960,44.400 72.400 C 44.400 72.840,44.220 73.200,44.000 73.200 C 43.780 73.200,43.600 73.560,43.600 74.000 C 43.600 74.440,43.420 74.800,43.200 74.800 C 42.980 74.800,42.800 75.160,42.800 75.600 C 42.800 76.040,42.620 76.400,42.400 76.400 C 42.180 76.400,42.000 76.760,42.000 77.200 C 42.000 77.640,41.820 78.000,41.600 78.000 C 41.380 78.000,41.200 78.360,41.200 78.800 C 41.200 79.240,41.020 79.600,40.800 79.600 C 40.580 79.600,40.400 80.320,40.400 81.200 C 40.400 82.080,40.220 82.800,40.000 82.800 C 39.780 82.800,39.600 83.160,39.600 83.600 C 39.600 84.040,39.420 84.400,39.200 84.400 C 38.980 84.400,38.800 84.940,38.800 85.600 C 38.800 86.260,38.620 86.800,38.400 86.800 C 38.180 86.800,38.000 87.520,38.000 88.400 C 38.000 89.280,37.820 90.000,37.600 90.000 C 37.371 90.000,37.200 91.200,37.200 92.800 C 37.200 94.400,37.029 95.600,36.800 95.600 C 36.578 95.600,36.400 96.667,36.400 98.000 C 36.400 99.333,36.222 100.400,36.000 100.400 C 35.448 100.400,35.448 163.459,36.000 163.800 C 36.220 163.936,36.400 163.767,36.400 163.424 C 36.400 163.081,36.537 162.800,36.705 162.800 C 36.873 162.800,37.188 162.410,37.405 161.933 C 37.622 161.456,38.152 160.871,38.583 160.633 C 39.692 160.020,40.205 159.505,40.510 158.700 C 40.656 158.315,41.166 158.000,41.645 158.000 C 42.190 158.000,43.509 156.991,45.174 155.300 C 46.636 153.815,48.627 152.163,49.597 151.629 C 50.567 151.095,52.794 149.250,54.546 147.529 C 56.297 145.808,57.906 144.400,58.122 144.400 C 58.337 144.400,59.029 143.860,59.660 143.200 C 60.291 142.540,61.180 142.000,61.635 142.000 C 62.090 142.000,63.154 141.280,64.000 140.400 C 64.846 139.520,65.749 138.800,66.008 138.800 C 66.267 138.800,67.029 138.215,67.701 137.500 C 68.474 136.679,68.987 136.384,69.095 136.700 C 69.385 137.544,70.800 137.295,70.800 136.400 C 70.800 135.952,71.067 135.600,71.405 135.600 C 72.177 135.600,73.604 134.801,74.443 133.900 C 74.801 133.515,75.647 133.200,76.323 133.200 C 77.000 133.200,77.664 133.020,77.800 132.800 C 77.936 132.580,78.319 132.400,78.652 132.400 C 79.515 132.400,80.400 131.399,80.400 130.423 C 80.400 129.964,80.567 129.277,80.771 128.895 C 80.976 128.513,81.894 126.130,82.812 123.600 C 91.124 100.686,108.305 85.814,132.000 81.023 C 145.266 78.340,149.575 78.133,208.500 77.349 C 218.614 77.214,226.800 76.948,226.800 76.753 C 226.800 76.559,227.983 76.400,229.429 76.400 C 232.131 76.400,233.200 75.898,233.200 74.629 C 233.200 74.162,233.612 74.000,234.800 74.000 C 235.680 74.000,236.400 73.820,236.400 73.600 C 236.400 73.378,237.467 73.200,238.800 73.200 C 240.133 73.200,241.200 73.022,241.200 72.800 C 241.200 72.580,242.100 72.400,243.200 72.400 C 244.300 72.400,245.200 72.220,245.200 72.000 C 245.200 71.420,246.702 71.508,246.905 72.100 C 247.013 72.416,247.526 72.121,248.299 71.300 C 249.609 69.907,252.300 69.490,254.026 70.414 C 254.560 70.700,254.800 70.700,254.800 70.414 C 254.800 70.156,256.309 70.000,258.800 70.000 C 261.200 70.000,262.800 69.840,262.800 69.600 C 262.800 69.360,264.400 69.200,266.800 69.200 C 270.533 69.200,270.800 69.147,270.800 68.400 C 270.800 67.960,270.980 67.600,271.200 67.600 C 271.420 67.600,271.600 67.780,271.600 68.000 C 271.600 68.220,271.945 68.400,272.367 68.400 C 272.788 68.400,273.238 68.625,273.367 68.900 C 273.553 69.300,273.647 69.300,273.833 68.900 C 273.973 68.601,274.844 68.400,276.000 68.400 C 277.156 68.400,278.027 68.199,278.167 67.900 C 278.353 67.500,278.447 67.500,278.633 67.900 C 278.919 68.512,284.400 68.607,284.400 68.000 C 284.400 67.771,285.600 67.600,287.200 67.600 C 288.800 67.600,290.000 67.771,290.000 68.000 C 290.000 68.233,291.333 68.400,293.200 68.400 C 295.067 68.400,296.400 68.233,296.400 68.000 C 296.400 67.780,297.120 67.600,298.000 67.600 C 299.333 67.600,299.600 67.733,299.600 68.400 C 299.600 69.162,299.867 69.200,305.167 69.200 C 308.522 69.200,310.786 69.359,310.867 69.600 C 310.944 69.832,312.976 70.025,315.700 70.059 C 319.355 70.104,320.400 70.238,320.400 70.659 C 320.400 71.395,321.569 71.347,321.855 70.600 C 322.110 69.936,323.600 69.765,323.600 70.400 C 323.600 70.920,325.078 70.920,325.400 70.400 C 325.722 69.879,327.600 69.879,327.600 70.400 C 327.600 70.620,328.305 70.800,329.167 70.800 C 330.029 70.800,330.838 71.025,330.967 71.300 C 331.153 71.700,331.247 71.700,331.433 71.300 C 331.710 70.707,333.200 70.623,333.200 71.200 C 333.200 71.420,333.560 71.600,334.000 71.600 C 334.440 71.600,334.800 71.780,334.800 72.000 C 334.800 72.233,336.122 72.400,337.967 72.400 C 339.890 72.400,341.190 72.571,341.278 72.834 C 341.358 73.073,342.930 73.438,344.773 73.644 C 347.296 73.926,348.291 74.213,348.808 74.809 C 349.185 75.244,349.788 75.600,350.147 75.600 C 350.506 75.600,350.800 75.780,350.800 76.000 C 350.800 76.220,350.980 76.400,351.200 76.400 C 351.420 76.400,351.600 76.040,351.600 75.600 C 351.600 73.705,356.341 76.404,356.387 78.325 C 356.394 78.614,356.958 80.054,357.639 81.525 C 358.321 82.996,359.033 84.560,359.222 85.000 C 360.258 87.411,363.200 101.478,363.200 104.020 C 363.200 105.378,363.562 106.400,364.043 106.400 C 364.239 106.400,364.400 104.870,364.400 103.000 C 364.400 101.000,364.235 99.600,364.000 99.600 C 363.767 99.600,363.600 98.267,363.600 96.400 C 363.600 94.533,363.433 93.200,363.200 93.200 C 362.980 93.200,362.800 92.300,362.800 91.200 C 362.800 90.100,362.620 89.200,362.400 89.200 C 362.180 89.200,362.000 88.660,362.000 88.000 C 362.000 87.340,361.820 86.800,361.600 86.800 C 361.380 86.800,361.200 86.260,361.200 85.600 C 361.200 84.940,361.020 84.400,360.800 84.400 C 360.580 84.400,360.400 83.860,360.400 83.200 C 360.400 82.540,360.220 82.000,360.000 82.000 C 359.780 82.000,359.600 81.460,359.600 80.800 C 359.600 80.140,359.420 79.600,359.200 79.600 C 358.980 79.600,358.800 79.240,358.800 78.800 C 358.800 78.360,358.620 78.000,358.400 78.000 C 358.180 78.000,358.000 77.640,358.000 77.200 C 358.000 76.760,357.820 76.400,357.600 76.400 C 357.380 76.400,357.200 76.040,357.200 75.600 C 357.200 75.160,357.020 74.800,356.800 74.800 C 356.580 74.800,356.400 74.300,356.400 73.688 C 356.400 73.035,356.070 72.339,355.600 72.000 C 355.160 71.683,354.800 71.143,354.800 70.800 C 354.800 70.457,354.440 69.917,354.000 69.600 C 353.560 69.283,353.200 68.703,353.200 68.312 C 353.200 67.920,353.020 67.600,352.800 67.600 C 352.580 67.600,352.400 67.312,352.400 66.960 C 352.400 66.609,351.860 65.817,351.200 65.200 C 350.540 64.583,350.000 63.867,350.000 63.608 C 350.000 63.349,349.280 62.446,348.400 61.600 C 347.520 60.754,346.800 59.860,346.800 59.613 C 346.800 58.946,344.931 57.200,344.218 57.200 C 343.878 57.200,343.600 56.922,343.600 56.582 C 343.600 55.871,341.855 54.000,341.192 54.000 C 340.948 54.000,339.871 53.100,338.800 52.000 C 337.729 50.900,336.642 50.000,336.386 50.000 C 336.130 50.000,335.417 49.460,334.800 48.800 C 334.183 48.140,333.391 47.600,333.040 47.600 C 332.688 47.600,332.400 47.420,332.400 47.200 C 332.400 46.980,332.080 46.800,331.688 46.800 C 331.297 46.800,330.717 46.440,330.400 46.000 C 330.083 45.560,329.503 45.200,329.112 45.200 C 328.720 45.200,328.400 45.020,328.400 44.800 C 328.400 44.580,328.040 44.400,327.600 44.400 C 327.160 44.400,326.800 44.220,326.800 44.000 C 326.800 43.780,326.440 43.600,326.000 43.600 C 325.560 43.600,325.200 43.420,325.200 43.200 C 325.200 42.980,324.840 42.800,324.400 42.800 C 323.960 42.800,323.600 42.620,323.600 42.400 C 323.600 42.180,323.240 42.000,322.800 42.000 C 322.360 42.000,322.000 41.820,322.000 41.600 C 322.000 41.380,321.640 41.200,321.200 41.200 C 320.760 41.200,320.400 41.020,320.400 40.800 C 320.400 40.580,319.680 40.400,318.800 40.400 C 317.920 40.400,317.200 40.220,317.200 40.000 C 317.200 39.780,316.840 39.600,316.400 39.600 C 315.960 39.600,315.600 39.420,315.600 39.200 C 315.600 38.980,315.060 38.800,314.400 38.800 C 313.740 38.800,313.200 38.620,313.200 38.400 C 313.200 38.180,312.480 38.000,311.600 38.000 C 310.720 38.000,310.000 37.820,310.000 37.600 C 310.000 37.371,308.800 37.200,307.200 37.200 C 305.600 37.200,304.400 37.029,304.400 36.800 C 304.400 36.580,303.500 36.400,302.400 36.400 C 301.300 36.400,300.400 36.220,300.400 36.000 C 300.400 35.734,266.800 35.600,200.400 35.600 C 134.000 35.600,100.400 35.734,100.400 36.000 M126.000 106.400 C 126.000 106.620,125.719 106.800,125.376 106.800 C 125.033 106.800,124.856 106.967,124.982 107.171 C 125.226 107.566,127.030 107.170,128.271 106.449 C 128.879 106.095,128.752 106.022,127.500 106.012 C 126.675 106.005,126.000 106.180,126.000 106.400 M123.468 108.234 C 123.602 108.582,123.823 108.717,123.960 108.534 C 124.097 108.350,124.372 108.065,124.571 107.900 C 124.770 107.735,124.549 107.600,124.079 107.600 C 123.464 107.600,123.293 107.777,123.468 108.234 M363.924 107.900 C 363.479 108.978,364.250 292.150,364.700 292.300 C 365.099 292.433,365.200 273.802,365.200 200.033 C 365.200 119.820,365.124 107.600,364.624 107.600 C 364.307 107.600,363.992 107.735,363.924 107.900 M121.400 109.050 L 120.200 109.634 121.400 109.389 C 122.060 109.254,122.771 108.976,122.980 108.772 C 123.531 108.233,122.819 108.358,121.400 109.050 M35.600 297.800 C 35.600 299.444,36.038 300.110,36.561 299.262 C 36.871 298.762,36.351 296.000,35.948 296.000 C 35.756 296.000,35.600 296.810,35.600 297.800 M363.374 297.797 C 363.088 299.323,363.341 300.400,363.987 300.400 C 364.216 300.400,364.400 299.507,364.400 298.400 C 364.400 296.103,363.762 295.728,363.374 297.797 M36.400 303.400 C 36.400 304.388,36.942 304.741,37.378 304.036 C 37.667 303.568,37.224 302.400,36.757 302.400 C 36.561 302.400,36.400 302.850,36.400 303.400 M362.643 303.300 C 362.548 303.795,362.094 306.000,361.633 308.200 C 360.637 312.959,360.625 313.200,361.400 313.200 C 361.800 313.200,362.000 312.800,362.000 312.000 C 362.000 311.340,362.180 310.800,362.400 310.800 C 362.620 310.800,362.800 309.900,362.800 308.800 C 362.800 307.700,362.980 306.800,363.200 306.800 C 363.420 306.800,363.600 305.810,363.600 304.600 C 363.600 302.419,362.974 301.569,362.643 303.300 M37.200 308.200 C 37.200 309.190,37.380 310.000,37.600 310.000 C 37.820 310.000,38.000 310.720,38.000 311.600 C 38.000 312.806,38.159 313.200,38.645 313.200 C 39.150 313.200,39.237 312.939,39.045 312.000 C 38.910 311.340,38.700 310.215,38.578 309.500 C 38.133 306.891,37.977 306.400,37.592 306.400 C 37.377 306.400,37.200 307.210,37.200 308.200 M38.800 314.567 C 38.800 315.239,39.019 315.600,39.428 315.600 C 39.845 315.600,40.013 315.308,39.928 314.731 C 39.739 313.451,38.800 313.314,38.800 314.567 M360.267 313.867 C 359.763 314.370,360.000 315.600,360.600 315.600 C 360.973 315.600,361.200 315.222,361.200 314.600 C 361.200 313.629,360.811 313.323,360.267 313.867 M39.600 316.600 C 39.600 316.930,39.780 317.200,40.000 317.200 C 40.220 317.200,40.400 316.930,40.400 316.600 C 40.400 316.270,40.220 316.000,40.000 316.000 C 39.780 316.000,39.600 316.270,39.600 316.600 M359.358 316.700 C 359.239 317.085,358.975 317.713,358.771 318.095 C 358.567 318.477,358.400 318.980,358.400 319.214 C 358.400 319.448,358.040 320.384,357.600 321.294 C 356.642 323.278,356.614 323.600,357.400 323.600 C 357.733 323.600,358.000 323.244,358.000 322.800 C 358.000 322.360,358.180 322.000,358.400 322.000 C 358.620 322.000,358.800 321.640,358.800 321.200 C 358.800 320.760,358.980 320.400,359.200 320.400 C 359.420 320.400,359.600 319.860,359.600 319.200 C 359.600 318.540,359.780 318.000,360.000 318.000 C 360.220 318.000,360.400 317.550,360.400 317.000 C 360.400 315.857,359.683 315.651,359.358 316.700 M40.400 319.167 C 40.400 319.845,40.580 320.400,40.800 320.400 C 41.020 320.400,41.200 320.760,41.200 321.200 C 41.200 321.640,41.380 322.000,41.600 322.000 C 41.820 322.000,42.000 322.375,42.000 322.833 C 42.000 323.331,42.201 323.593,42.500 323.483 C 43.081 323.270,43.082 323.279,42.054 320.412 C 41.157 317.909,40.400 317.339,40.400 319.167 M42.800 324.600 C 42.800 324.930,43.070 325.200,43.400 325.200 C 43.730 325.200,44.000 324.930,44.000 324.600 C 44.000 324.270,43.730 324.000,43.400 324.000 C 43.070 324.000,42.800 324.270,42.800 324.600 M356.000 324.600 C 356.000 324.930,356.270 325.200,356.600 325.200 C 356.930 325.200,357.200 324.930,357.200 324.600 C 357.200 324.270,356.930 324.000,356.600 324.000 C 356.270 324.000,356.000 324.270,356.000 324.600 M43.600 326.200 C 43.600 326.530,43.780 326.800,44.000 326.800 C 44.220 326.800,44.400 327.160,44.400 327.600 C 44.400 328.040,44.580 328.400,44.800 328.400 C 45.020 328.400,45.200 328.683,45.200 329.029 C 45.200 329.773,46.330 331.004,46.685 330.648 C 47.060 330.273,44.673 325.624,44.100 325.611 C 43.825 325.605,43.600 325.870,43.600 326.200 M354.828 326.900 C 354.516 327.615,353.407 329.495,352.364 331.078 C 351.321 332.661,350.350 334.326,350.207 334.778 C 350.063 335.230,349.779 335.600,349.576 335.600 C 349.372 335.600,348.659 336.365,347.991 337.300 C 346.368 339.572,339.355 346.662,337.600 347.803 C 336.830 348.304,335.803 349.093,335.317 349.557 C 334.831 350.021,334.261 350.400,334.050 350.400 C 333.839 350.400,333.607 350.542,333.533 350.715 C 333.460 350.888,332.545 351.526,331.500 352.132 C 330.455 352.738,329.240 353.620,328.800 354.092 C 328.360 354.565,328.000 354.822,328.000 354.665 C 328.000 354.508,327.460 354.659,326.800 355.000 C 326.140 355.341,325.600 355.796,325.600 356.010 C 325.600 356.723,327.414 356.413,328.000 355.600 C 328.317 355.160,328.897 354.800,329.288 354.800 C 329.680 354.800,330.000 354.620,330.000 354.400 C 330.000 354.180,330.360 354.000,330.800 354.000 C 331.240 354.000,331.600 353.820,331.600 353.600 C 331.600 353.380,331.888 353.200,332.240 353.200 C 332.591 353.200,333.383 352.660,334.000 352.000 C 334.617 351.340,335.330 350.800,335.586 350.800 C 335.842 350.800,336.929 349.900,338.000 348.800 C 339.071 347.700,340.143 346.800,340.380 346.800 C 340.948 346.800,346.800 340.943,346.800 340.375 C 346.800 340.134,347.520 339.246,348.400 338.400 C 349.280 337.554,350.000 336.654,350.000 336.400 C 350.000 336.146,350.720 335.246,351.600 334.400 C 352.480 333.554,353.200 332.579,353.200 332.231 C 353.200 331.884,353.380 331.600,353.600 331.600 C 353.820 331.600,354.000 331.240,354.000 330.800 C 354.000 330.360,354.180 330.000,354.400 330.000 C 354.620 330.000,354.800 329.680,354.800 329.288 C 354.800 328.897,355.160 328.317,355.600 328.000 C 356.479 327.367,356.698 325.600,355.898 325.600 C 355.621 325.600,355.140 326.185,354.828 326.900 M46.800 331.800 C 46.800 332.130,46.980 332.400,47.200 332.400 C 47.420 332.400,47.600 332.688,47.600 333.040 C 47.600 333.391,48.140 334.183,48.800 334.800 C 49.460 335.417,50.000 336.130,50.000 336.386 C 50.000 336.642,50.900 337.729,52.000 338.800 C 53.100 339.871,54.000 340.948,54.000 341.192 C 54.000 341.755,55.825 343.600,56.382 343.600 C 57.298 343.600,56.710 342.415,55.065 340.942 C 54.110 340.088,52.869 338.671,52.306 337.794 C 51.743 336.918,50.904 335.887,50.441 335.504 C 49.979 335.121,49.600 334.564,49.600 334.266 C 49.600 333.968,49.240 333.398,48.800 333.000 C 48.360 332.602,48.000 332.034,48.000 331.738 C 48.000 331.442,47.730 331.200,47.400 331.200 C 47.070 331.200,46.800 331.470,46.800 331.800 M57.200 344.418 C 57.200 344.978,59.046 346.800,59.613 346.800 C 59.860 346.800,60.754 347.520,61.600 348.400 C 62.446 349.280,63.349 350.000,63.608 350.000 C 63.867 350.000,64.583 350.540,65.200 351.200 C 65.817 351.860,66.609 352.400,66.960 352.400 C 67.312 352.400,67.600 352.580,67.600 352.800 C 67.600 353.020,67.870 353.200,68.200 353.200 C 68.530 353.200,68.800 352.930,68.800 352.600 C 68.800 352.270,68.592 352.000,68.338 352.000 C 68.084 352.000,67.286 351.550,66.564 351.000 C 65.843 350.450,65.061 350.000,64.827 350.000 C 64.592 350.000,64.400 349.855,64.400 349.677 C 64.400 349.499,63.666 348.824,62.769 348.177 C 61.871 347.530,60.492 346.325,59.704 345.500 C 58.315 344.045,57.200 343.564,57.200 344.418 M69.376 353.239 C 69.092 353.698,70.157 354.800,70.883 354.800 C 71.180 354.800,71.683 355.160,72.000 355.600 C 72.564 356.382,74.400 356.734,74.400 356.060 C 74.400 355.515,69.626 352.835,69.376 353.239 M74.800 356.600 C 74.800 356.930,75.070 357.200,75.400 357.200 C 75.730 357.200,76.000 356.930,76.000 356.600 C 76.000 356.270,75.730 356.000,75.400 356.000 C 75.070 356.000,74.800 356.270,74.800 356.600 M324.000 356.600 C 324.000 356.930,324.270 357.200,324.600 357.200 C 324.930 357.200,325.200 356.930,325.200 356.600 C 325.200 356.270,324.930 356.000,324.600 356.000 C 324.270 356.000,324.000 356.270,324.000 356.600 M76.667 357.067 C 76.206 357.527,76.375 358.000,77.000 358.000 C 77.330 358.000,77.600 357.730,77.600 357.400 C 77.600 356.775,77.127 356.606,76.667 357.067 M322.656 357.078 C 322.205 357.528,322.381 358.000,323.000 358.000 C 323.330 358.000,323.600 357.831,323.600 357.624 C 323.600 357.119,322.975 356.758,322.656 357.078 M78.000 358.200 C 78.000 358.533,78.356 358.800,78.800 358.800 C 79.240 358.800,79.600 358.980,79.600 359.200 C 79.600 359.420,80.140 359.600,80.800 359.600 C 81.460 359.600,82.000 359.780,82.000 360.000 C 82.000 360.220,82.465 360.400,83.033 360.400 C 84.687 360.400,83.958 359.538,81.709 358.834 C 80.581 358.481,79.526 358.059,79.363 357.896 C 78.851 357.384,78.000 357.574,78.000 358.200 M320.400 357.996 C 320.070 358.187,319.485 358.440,319.100 358.559 C 318.051 358.883,318.257 359.600,319.400 359.600 C 319.950 359.600,320.400 359.420,320.400 359.200 C 320.400 358.980,320.775 358.800,321.233 358.800 C 321.699 358.800,321.997 358.590,321.908 358.325 C 321.698 357.695,321.135 357.572,320.400 357.996 M316.267 359.467 C 315.723 360.011,316.029 360.400,317.000 360.400 C 317.622 360.400,318.000 360.173,318.000 359.800 C 318.000 359.200,316.770 358.963,316.267 359.467 M84.400 360.572 C 84.400 360.981,84.761 361.200,85.433 361.200 C 86.686 361.200,86.549 360.261,85.269 360.072 C 84.692 359.987,84.400 360.155,84.400 360.572 M313.867 360.267 C 313.323 360.811,313.629 361.200,314.600 361.200 C 315.222 361.200,315.600 360.973,315.600 360.600 C 315.600 360.000,314.370 359.763,313.867 360.267 M86.800 361.400 C 86.800 361.800,87.200 362.000,88.000 362.000 C 88.660 362.000,89.200 362.180,89.200 362.400 C 89.200 362.620,90.100 362.800,91.200 362.800 C 92.300 362.800,93.200 362.980,93.200 363.200 C 93.200 363.420,94.190 363.600,95.400 363.600 C 96.610 363.600,97.600 363.439,97.600 363.243 C 97.600 362.749,96.573 362.402,95.067 362.388 C 94.370 362.382,92.540 362.027,91.000 361.600 C 87.599 360.657,86.800 360.619,86.800 361.400 M311.200 361.200 C 310.870 361.413,310.120 361.591,309.533 361.594 C 308.946 361.597,308.181 361.709,307.833 361.843 C 306.617 362.309,307.215 362.800,309.000 362.800 C 309.990 362.800,310.800 362.620,310.800 362.400 C 310.800 362.180,311.340 362.000,312.000 362.000 C 312.800 362.000,313.200 361.800,313.200 361.400 C 313.200 360.724,312.106 360.614,311.200 361.200 M303.300 362.665 C 302.164 363.123,302.929 363.600,304.800 363.600 C 306.311 363.600,306.800 363.453,306.800 363.000 C 306.800 362.404,304.493 362.184,303.300 362.665 M100.690 363.444 C 100.048 364.085,100.480 364.400,102.000 364.400 C 102.880 364.400,103.600 364.220,103.600 364.000 C 103.600 363.780,103.375 363.598,103.100 363.595 C 102.825 363.592,102.235 363.491,101.790 363.371 C 101.344 363.252,100.849 363.284,100.690 363.444 M297.900 363.478 C 296.747 363.775,297.109 364.400,298.433 364.400 C 299.208 364.400,299.608 364.223,299.508 363.925 C 299.321 363.362,298.855 363.232,297.900 363.478 M108.668 364.266 C 108.520 364.413,108.400 364.683,108.400 364.867 C 108.400 365.050,149.455 365.200,199.633 365.200 C 272.442 365.200,290.833 365.099,290.700 364.700 C 290.519 364.157,109.209 363.724,108.668 364.266 " stroke="none" fill="#5a49bf" fill-rule="evenodd"></path><path id="path2" d="M270.800 68.400 C 270.800 69.147,270.533 69.200,266.800 69.200 C 264.400 69.200,262.800 69.360,262.800 69.600 C 262.800 69.840,261.200 70.000,258.800 70.000 C 256.309 70.000,254.800 70.156,254.800 70.414 C 254.800 70.700,254.560 70.700,254.026 70.414 C 252.300 69.490,249.609 69.907,248.299 71.300 C 247.526 72.121,247.013 72.416,246.905 72.100 C 246.702 71.508,245.200 71.420,245.200 72.000 C 245.200 72.220,244.300 72.400,243.200 72.400 C 242.100 72.400,241.200 72.580,241.200 72.800 C 241.200 73.022,240.133 73.200,238.800 73.200 C 237.467 73.200,236.400 73.378,236.400 73.600 C 236.400 73.820,235.680 74.000,234.800 74.000 C 233.612 74.000,233.200 74.162,233.200 74.629 C 233.200 75.893,232.130 76.400,229.462 76.400 C 228.035 76.400,226.807 76.576,226.733 76.791 C 226.650 77.036,217.319 77.298,201.800 77.491 L 177.000 77.800 211.600 78.050 C 248.591 78.318,257.689 78.715,265.400 80.402 C 278.223 83.207,284.140 85.498,292.200 90.779 C 309.494 102.111,318.551 119.462,321.234 146.400 C 322.298 157.083,322.293 244.212,321.228 254.265 C 318.276 282.120,308.512 299.893,290.077 310.970 C 287.522 312.505,287.015 313.155,288.945 312.421 C 289.790 312.100,290.000 312.137,290.000 312.610 C 290.000 312.934,290.174 313.200,290.387 313.200 C 290.601 313.200,290.671 313.470,290.545 313.800 C 290.418 314.130,290.511 314.400,290.750 314.400 C 291.031 314.400,291.132 315.186,291.034 316.600 C 290.949 317.810,291.043 318.800,291.240 318.800 C 291.438 318.800,291.600 319.149,291.600 319.576 C 291.600 320.003,291.780 320.464,292.000 320.600 C 292.220 320.736,292.400 321.647,292.400 322.624 C 292.400 323.601,292.580 324.400,292.800 324.400 C 293.020 324.400,293.200 324.940,293.200 325.600 C 293.200 326.260,293.380 326.800,293.600 326.800 C 293.820 326.800,294.000 327.070,294.000 327.400 C 294.000 327.730,294.180 328.000,294.400 328.000 C 294.620 328.000,294.800 328.990,294.800 330.200 C 294.800 331.410,294.980 332.400,295.200 332.400 C 295.420 332.400,295.600 332.760,295.600 333.200 C 295.600 333.640,295.780 334.000,296.000 334.000 C 296.220 334.000,296.400 334.540,296.400 335.200 C 296.400 335.860,296.580 336.400,296.800 336.400 C 297.022 336.400,297.200 337.467,297.200 338.800 C 297.200 340.133,297.378 341.200,297.600 341.200 C 297.820 341.200,298.000 341.560,298.000 342.000 C 298.000 342.440,298.180 342.800,298.400 342.800 C 298.978 342.800,298.893 344.302,298.305 344.498 C 297.911 344.630,297.911 344.886,298.305 345.751 C 298.577 346.348,298.800 347.549,298.800 348.419 C 298.800 349.288,298.980 350.000,299.200 350.000 C 299.433 350.000,299.600 351.333,299.600 353.200 C 299.600 355.067,299.767 356.400,300.000 356.400 C 300.228 356.400,300.400 357.577,300.400 359.132 C 300.400 362.399,300.138 362.614,295.734 362.968 C 292.630 363.218,291.600 363.486,291.600 364.043 C 291.600 364.610,297.105 364.485,297.296 363.913 C 297.405 363.585,298.271 363.458,299.946 363.524 C 301.803 363.598,302.599 363.458,303.081 362.976 C 303.532 362.526,304.254 362.371,305.463 362.468 C 306.417 362.544,307.251 362.446,307.316 362.252 C 307.430 361.910,310.346 361.237,312.400 361.078 C 312.950 361.035,313.598 360.747,313.840 360.438 C 314.091 360.118,314.639 359.969,315.114 360.094 C 315.643 360.232,316.033 360.091,316.179 359.710 C 316.328 359.321,316.754 359.174,317.385 359.295 C 317.979 359.409,318.441 359.270,318.567 358.941 C 318.682 358.643,319.130 358.400,319.564 358.400 C 319.998 358.400,320.469 358.213,320.610 357.984 C 320.752 357.755,321.191 357.670,321.586 357.796 C 322.023 357.934,322.396 357.786,322.537 357.419 C 322.671 357.071,323.032 356.914,323.385 357.050 C 323.792 357.206,324.000 357.052,324.000 356.596 C 324.000 356.104,324.229 355.966,324.800 356.116 C 325.240 356.231,325.600 356.167,325.600 355.973 C 325.600 355.779,326.140 355.341,326.800 355.000 C 327.460 354.659,328.000 354.508,328.000 354.665 C 328.000 354.822,328.360 354.565,328.800 354.092 C 329.240 353.620,330.455 352.738,331.500 352.132 C 332.545 351.526,333.460 350.888,333.533 350.715 C 333.607 350.542,333.839 350.400,334.050 350.400 C 334.261 350.400,334.831 350.021,335.317 349.557 C 335.803 349.093,336.830 348.304,337.600 347.803 C 339.355 346.662,346.368 339.572,347.991 337.300 C 348.659 336.365,349.372 335.600,349.576 335.600 C 349.779 335.600,350.063 335.230,350.207 334.778 C 350.350 334.326,351.321 332.661,352.364 331.078 C 353.407 329.495,354.516 327.615,354.828 326.900 C 355.140 326.185,355.604 325.600,355.860 325.600 C 356.128 325.600,356.236 325.261,356.116 324.800 C 355.968 324.235,356.104 324.000,356.577 324.000 C 356.946 324.000,357.131 323.812,356.988 323.581 C 356.846 323.351,357.105 322.363,357.565 321.386 C 358.024 320.408,358.400 319.347,358.400 319.028 C 358.400 318.709,358.580 318.336,358.800 318.200 C 359.020 318.064,359.200 317.598,359.200 317.164 C 359.200 316.730,359.443 316.282,359.741 316.167 C 360.070 316.041,360.209 315.579,360.095 314.985 C 359.974 314.354,360.121 313.928,360.510 313.779 C 360.841 313.652,361.032 313.245,360.936 312.874 C 360.839 312.503,361.129 310.618,361.580 308.685 C 362.031 306.751,362.400 304.739,362.400 304.213 C 362.400 303.687,362.654 303.003,362.965 302.692 C 363.354 302.303,363.510 301.295,363.465 299.451 C 363.429 297.979,363.580 296.645,363.800 296.487 C 364.066 296.296,364.133 264.638,364.000 202.200 C 363.878 144.915,363.945 107.943,364.170 107.542 C 364.431 107.079,364.342 106.684,363.870 106.213 C 363.502 105.844,363.200 104.949,363.200 104.224 C 363.200 101.502,360.308 87.528,359.222 85.000 C 359.033 84.560,358.321 82.996,357.639 81.525 C 356.958 80.054,356.394 78.614,356.387 78.325 C 356.341 76.404,351.600 73.705,351.600 75.600 C 351.600 76.040,351.420 76.400,351.200 76.400 C 350.980 76.400,350.800 76.220,350.800 76.000 C 350.800 75.780,350.506 75.600,350.147 75.600 C 349.788 75.600,349.185 75.244,348.808 74.809 C 348.291 74.213,347.296 73.926,344.773 73.644 C 342.930 73.438,341.358 73.073,341.278 72.834 C 341.190 72.571,339.890 72.400,337.967 72.400 C 336.122 72.400,334.800 72.233,334.800 72.000 C 334.800 71.780,334.440 71.600,334.000 71.600 C 333.560 71.600,333.200 71.420,333.200 71.200 C 333.200 70.623,331.710 70.707,331.433 71.300 C 331.247 71.700,331.153 71.700,330.967 71.300 C 330.838 71.025,330.029 70.800,329.167 70.800 C 328.305 70.800,327.600 70.620,327.600 70.400 C 327.600 70.180,327.161 70.000,326.624 70.000 C 326.087 70.000,325.536 70.180,325.400 70.400 C 325.264 70.620,324.803 70.800,324.376 70.800 C 323.949 70.800,323.600 70.620,323.600 70.400 C 323.600 69.765,322.110 69.936,321.855 70.600 C 321.569 71.347,320.400 71.395,320.400 70.659 C 320.400 70.238,319.355 70.104,315.700 70.059 C 312.976 70.025,310.944 69.832,310.867 69.600 C 310.786 69.359,308.522 69.200,305.167 69.200 C 299.867 69.200,299.600 69.162,299.600 68.400 C 299.600 67.733,299.333 67.600,298.000 67.600 C 297.120 67.600,296.400 67.780,296.400 68.000 C 296.400 68.233,295.067 68.400,293.200 68.400 C 291.333 68.400,290.000 68.233,290.000 68.000 C 290.000 67.771,288.800 67.600,287.200 67.600 C 285.600 67.600,284.400 67.771,284.400 68.000 C 284.400 68.607,278.919 68.512,278.633 67.900 C 278.447 67.500,278.353 67.500,278.167 67.900 C 278.027 68.199,277.156 68.400,276.000 68.400 C 274.844 68.400,273.973 68.601,273.833 68.900 C 273.647 69.300,273.553 69.300,273.367 68.900 C 273.238 68.625,272.788 68.400,272.367 68.400 C 271.945 68.400,271.600 68.220,271.600 68.000 C 271.600 67.780,271.420 67.600,271.200 67.600 C 270.980 67.600,270.800 67.960,270.800 68.400 M162.311 78.293 C 163.251 78.378,164.691 78.377,165.511 78.291 C 166.330 78.205,165.560 78.136,163.800 78.137 C 162.040 78.139,161.370 78.209,162.311 78.293 M152.000 100.604 C 141.754 101.184,138.205 101.630,134.200 102.838 C 110.899 109.868,102.330 122.559,100.599 152.600 C 100.085 161.510,99.784 222.651,100.276 218.000 C 100.565 215.272,101.065 214.800,103.668 214.800 C 104.950 214.800,106.000 214.640,106.000 214.444 C 106.000 214.108,106.581 213.973,110.700 213.352 C 111.635 213.211,112.400 212.939,112.400 212.748 C 112.400 212.557,113.469 212.400,114.776 212.400 C 116.083 212.400,117.264 212.220,117.400 212.000 C 117.539 211.775,119.471 211.600,121.824 211.600 C 124.341 211.600,126.000 211.441,126.000 211.200 C 126.000 210.618,128.296 210.709,128.536 211.300 C 128.689 211.676,128.843 211.651,129.157 211.200 C 129.514 210.688,129.703 210.679,130.449 211.141 C 131.195 211.604,131.371 211.595,131.658 211.083 C 131.915 210.623,132.324 210.557,133.408 210.802 C 134.433 211.033,134.976 210.967,135.382 210.560 C 136.348 209.595,137.623 210.353,138.142 212.200 C 138.266 212.640,138.288 212.370,138.192 211.600 C 137.276 204.234,137.149 202.026,137.380 197.400 C 137.523 194.540,137.824 191.390,138.049 190.400 C 140.353 180.258,140.676 179.270,143.858 172.600 C 150.214 159.278,161.897 148.204,175.800 142.323 C 178.187 141.314,183.399 139.617,185.315 139.227 C 192.809 137.698,193.707 137.600,200.269 137.600 C 207.288 137.600,208.480 137.747,215.327 139.451 C 233.857 144.062,250.890 158.388,257.356 174.800 C 257.747 175.790,258.309 177.140,258.606 177.800 C 259.828 180.516,260.463 182.906,262.059 190.800 C 262.745 194.196,262.739 206.150,262.049 209.600 C 258.891 225.388,252.768 236.919,242.479 246.449 C 239.884 248.853,239.796 249.103,242.108 247.501 L 243.217 246.733 244.369 247.967 C 245.003 248.645,245.727 249.200,245.979 249.200 C 246.619 249.200,248.400 251.049,248.400 251.714 C 248.400 252.017,248.892 252.520,249.494 252.832 C 250.800 253.510,254.800 257.406,254.800 258.000 C 254.800 258.230,255.671 259.269,256.735 260.309 C 257.800 261.349,259.068 262.779,259.553 263.486 C 260.038 264.194,261.118 265.454,261.952 266.286 C 262.786 267.119,263.582 268.115,263.722 268.500 C 263.861 268.885,264.251 269.200,264.587 269.200 C 264.926 269.200,265.200 269.545,265.200 269.973 C 265.200 270.731,267.099 272.400,267.962 272.400 C 268.203 272.400,268.400 272.863,268.400 273.429 C 268.400 274.586,269.227 275.600,270.171 275.600 C 270.602 275.600,270.800 275.974,270.800 276.786 C 270.800 277.562,271.076 278.120,271.600 278.400 C 272.040 278.635,272.400 279.116,272.400 279.467 C 272.400 279.819,272.724 280.397,273.120 280.753 C 273.517 281.109,274.160 282.086,274.551 282.924 C 274.941 283.762,275.517 284.547,275.830 284.667 C 276.144 284.787,276.400 285.136,276.400 285.443 C 276.400 285.749,276.580 286.000,276.800 286.000 C 277.020 286.000,277.200 286.268,277.200 286.597 C 277.200 286.925,277.740 287.709,278.400 288.340 C 279.995 289.865,279.914 290.581,278.000 291.847 C 276.066 293.127,275.924 293.464,277.700 292.556 C 288.605 286.980,296.551 273.954,298.778 258.000 C 300.526 245.486,300.528 153.855,298.781 141.600 C 298.336 138.477,298.230 137.993,296.763 132.400 C 292.413 115.817,279.346 104.805,260.200 101.587 C 251.069 100.052,174.094 99.353,152.000 100.604 M128.271 106.449 C 127.030 107.170,125.226 107.566,124.982 107.171 C 124.856 106.967,125.033 106.800,125.376 106.800 C 125.719 106.800,126.000 106.620,126.000 106.400 C 126.000 106.180,126.675 106.005,127.500 106.012 C 128.752 106.022,128.879 106.095,128.271 106.449 M124.571 107.900 C 124.372 108.065,124.097 108.350,123.960 108.534 C 123.823 108.717,123.602 108.582,123.468 108.234 C 123.293 107.777,123.464 107.600,124.079 107.600 C 124.549 107.600,124.770 107.735,124.571 107.900 M122.980 108.772 C 122.771 108.976,122.060 109.254,121.400 109.389 L 120.200 109.634 121.400 109.050 C 122.819 108.358,123.531 108.233,122.980 108.772 M84.500 119.088 C 83.311 121.900,83.031 122.952,83.557 122.626 C 83.801 122.476,84.000 122.108,84.000 121.810 C 84.000 121.511,84.365 120.416,84.810 119.377 C 85.256 118.337,85.550 117.417,85.465 117.331 C 85.379 117.246,84.945 118.036,84.500 119.088 M267.975 120.795 C 275.371 122.198,280.852 129.981,279.528 137.200 C 277.716 147.079,267.370 152.451,258.665 148.033 C 243.516 140.344,251.279 117.629,267.975 120.795 M82.022 125.687 C 81.534 127.069,80.970 128.513,80.768 128.895 C 80.566 129.277,80.400 129.964,80.400 130.423 C 80.400 131.399,79.515 132.400,78.652 132.400 C 78.319 132.400,77.936 132.580,77.800 132.800 C 77.664 133.020,77.000 133.200,76.323 133.200 C 75.647 133.200,74.801 133.515,74.443 133.900 C 73.604 134.801,72.177 135.600,71.405 135.600 C 71.067 135.600,70.800 135.952,70.800 136.400 C 70.800 137.295,69.385 137.544,69.095 136.700 C 68.987 136.384,68.474 136.679,67.701 137.500 C 67.029 138.215,66.267 138.800,66.008 138.800 C 65.749 138.800,64.846 139.520,64.000 140.400 C 63.154 141.280,62.090 142.000,61.635 142.000 C 61.180 142.000,60.291 142.540,59.660 143.200 C 59.029 143.860,58.337 144.400,58.122 144.400 C 57.906 144.400,56.297 145.808,54.546 147.529 C 52.794 149.250,50.567 151.095,49.597 151.629 C 48.627 152.163,46.636 153.815,45.174 155.300 C 43.509 156.991,42.190 158.000,41.645 158.000 C 41.166 158.000,40.656 158.315,40.510 158.700 C 40.205 159.505,39.692 160.020,38.583 160.633 C 38.152 160.871,37.622 161.456,37.405 161.933 C 37.188 162.410,36.873 162.800,36.705 162.800 C 36.537 162.800,36.400 163.081,36.400 163.424 C 36.400 163.767,36.220 163.936,36.000 163.800 C 35.734 163.636,35.600 177.384,35.600 204.742 L 35.600 245.931 36.800 245.478 C 37.460 245.228,38.000 244.781,38.000 244.484 C 38.000 243.752,39.000 242.800,39.768 242.800 C 40.112 242.800,40.618 242.440,40.893 242.000 C 41.168 241.560,41.709 241.200,42.096 241.200 C 42.483 241.200,42.800 241.020,42.800 240.800 C 42.800 240.580,43.036 240.400,43.325 240.400 C 43.613 240.400,44.236 240.040,44.708 239.600 C 45.180 239.160,45.912 238.800,46.335 238.800 C 46.757 238.800,48.047 237.900,49.200 236.800 C 50.353 235.700,51.419 234.800,51.569 234.800 C 52.112 234.800,53.994 233.792,53.997 233.500 C 53.999 233.335,54.414 233.200,54.920 233.200 C 55.974 233.200,57.992 232.347,57.997 231.900 C 57.999 231.735,58.339 231.600,58.753 231.600 C 59.168 231.600,59.594 231.264,59.702 230.854 C 59.827 230.374,60.415 230.011,61.354 229.835 C 62.948 229.536,66.800 227.727,66.800 227.277 C 66.800 226.833,69.311 225.836,70.235 225.912 C 70.694 225.949,71.476 225.602,71.972 225.140 C 72.468 224.678,73.307 224.300,73.837 224.300 C 74.367 224.300,74.800 224.163,74.800 223.997 C 74.800 223.508,76.973 223.233,77.254 223.687 C 77.674 224.366,77.967 211.030,78.176 181.800 C 78.364 155.404,78.708 145.300,79.612 139.600 C 80.526 133.835,81.809 127.790,82.634 125.362 C 82.977 124.351,83.179 123.445,83.082 123.349 C 82.986 123.253,82.509 124.305,82.022 125.687 M194.000 159.822 C 176.352 162.598,162.239 176.655,159.930 193.757 C 159.153 199.505,159.954 209.014,161.532 212.800 L 161.949 213.800 161.975 212.871 C 162.015 211.402,163.061 210.556,163.918 211.302 C 164.293 211.628,164.836 211.810,165.125 211.706 C 165.414 211.602,165.869 211.815,166.136 212.181 C 166.714 212.970,168.089 213.258,168.470 212.669 C 168.647 212.394,168.920 212.385,169.270 212.642 C 170.148 213.289,172.489 213.897,174.398 213.973 C 175.551 214.018,176.492 214.323,177.023 214.822 C 177.479 215.250,178.065 215.600,178.326 215.600 C 178.587 215.600,178.800 215.780,178.800 216.000 C 178.800 216.220,179.332 216.400,179.981 216.400 C 180.631 216.400,181.652 216.623,182.249 216.895 C 183.036 217.254,183.378 217.267,183.486 216.942 C 183.663 216.410,186.800 217.078,186.800 217.649 C 186.800 217.842,187.509 218.000,188.376 218.000 C 189.243 218.000,190.064 218.180,190.200 218.400 C 190.336 218.620,190.881 218.800,191.411 218.800 C 191.942 218.800,193.017 219.160,193.800 219.600 C 194.583 220.040,195.669 220.400,196.212 220.400 C 196.755 220.400,197.201 220.535,197.203 220.700 C 197.207 221.107,199.187 222.000,200.085 222.000 C 200.965 222.000,202.360 222.751,203.243 223.700 C 203.601 224.085,204.328 224.400,204.859 224.400 C 205.389 224.400,206.083 224.760,206.400 225.200 C 206.994 226.024,209.200 226.339,209.200 225.600 C 209.200 225.380,209.380 225.200,209.600 225.200 C 209.820 225.200,210.000 225.470,210.000 225.800 C 210.000 226.130,210.167 226.400,210.371 226.400 C 210.576 226.400,211.056 226.713,211.439 227.096 C 211.940 227.597,212.182 227.653,212.301 227.296 C 212.564 226.507,213.200 226.721,213.200 227.600 C 213.200 228.040,213.380 228.400,213.600 228.400 C 213.820 228.400,214.000 228.220,214.000 228.000 C 214.000 227.780,214.360 227.600,214.800 227.600 C 215.240 227.600,215.600 227.858,215.600 228.173 C 215.600 228.488,215.960 228.860,216.400 229.000 C 216.840 229.140,217.200 229.422,217.200 229.627 C 217.200 229.832,217.700 230.000,218.312 230.000 C 218.965 230.000,219.661 230.330,220.000 230.800 C 220.317 231.240,220.820 231.600,221.117 231.600 C 222.746 231.600,222.983 232.871,221.576 234.067 L 220.200 235.237 222.400 233.933 C 228.769 230.158,235.972 220.860,238.618 213.000 C 245.073 193.821,235.862 171.708,218.000 163.505 C 209.466 159.586,202.397 158.502,194.000 159.822 M35.600 293.720 C 35.600 294.974,35.768 296.000,35.973 296.000 C 36.179 296.000,36.437 296.495,36.547 297.100 C 36.656 297.705,36.676 296.867,36.591 295.238 C 36.400 291.584,35.600 290.358,35.600 293.720 M36.400 301.429 C 36.400 301.774,36.670 302.327,37.000 302.657 C 37.670 303.328,37.849 302.715,37.357 301.433 C 37.044 300.616,36.400 300.614,36.400 301.429 M37.200 305.795 C 37.200 305.939,37.489 306.347,37.843 306.700 C 38.434 307.291,38.475 307.283,38.343 306.605 C 38.211 305.922,37.200 305.206,37.200 305.795 M38.434 309.200 C 38.422 309.750,38.587 310.470,38.800 310.800 C 39.309 311.587,39.309 310.184,38.800 309.000 C 38.485 308.267,38.454 308.284,38.434 309.200 M39.109 312.563 C 38.991 313.181,39.126 313.639,39.464 313.769 C 39.878 313.928,39.947 313.715,39.749 312.889 C 39.399 311.431,39.332 311.397,39.109 312.563 M39.804 315.593 C 39.666 315.817,39.730 316.000,39.947 316.000 C 40.164 316.000,40.424 316.315,40.524 316.700 C 40.666 317.241,40.718 317.200,40.754 316.524 C 40.805 315.553,40.197 314.958,39.804 315.593 M46.704 330.212 C 46.817 330.802,47.157 331.187,47.547 331.168 C 47.961 331.148,48.017 331.063,47.700 330.935 C 47.425 330.824,47.200 330.489,47.200 330.190 C 47.200 329.892,47.046 329.552,46.858 329.436 C 46.670 329.319,46.601 329.669,46.704 330.212 M48.000 331.938 C 48.000 332.124,48.388 332.619,48.862 333.038 L 49.724 333.800 49.016 332.700 C 48.286 331.566,48.000 331.351,48.000 331.938 M49.606 334.220 C 49.615 334.748,50.034 335.268,51.200 336.197 L 52.200 336.994 51.206 335.797 C 50.659 335.139,50.074 334.429,49.906 334.220 C 49.713 333.980,49.602 333.980,49.606 334.220 M52.585 338.200 C 53.004 338.860,54.124 340.096,55.073 340.948 C 56.023 341.799,56.800 342.748,56.800 343.058 C 56.800 343.367,57.205 343.775,57.700 343.965 C 58.195 344.155,59.202 344.974,59.937 345.785 C 60.672 346.596,61.359 347.174,61.464 347.069 C 61.741 346.793,58.291 343.622,57.700 343.610 C 57.425 343.605,57.193 343.375,57.185 343.100 C 57.177 342.825,55.967 341.340,54.497 339.800 C 53.027 338.260,52.167 337.540,52.585 338.200 M63.322 348.549 C 64.160 349.347,64.937 350.000,65.049 350.000 C 65.161 350.000,65.876 350.475,66.638 351.056 C 67.399 351.636,68.122 352.011,68.245 351.888 C 68.368 351.765,68.048 351.443,67.534 351.171 C 67.020 350.900,65.520 349.872,64.200 348.887 C 62.027 347.267,61.944 347.235,63.322 348.549 M73.000 354.862 C 73.440 355.103,74.008 355.558,74.262 355.874 C 74.551 356.234,74.817 356.296,74.975 356.041 C 75.113 355.817,74.689 355.356,74.033 355.017 C 72.690 354.323,71.758 354.183,73.000 354.862 M86.238 360.556 C 86.370 360.899,86.777 361.026,87.304 360.889 C 88.126 360.674,88.128 360.654,87.379 360.361 C 86.217 359.906,86.003 359.943,86.238 360.556 M89.400 361.200 C 89.840 361.389,90.560 361.538,91.000 361.532 C 91.643 361.523,91.604 361.457,90.800 361.200 C 89.432 360.762,88.381 360.762,89.400 361.200 M92.600 362.000 C 93.040 362.189,93.850 362.338,94.400 362.332 L 95.400 362.320 94.400 362.000 C 93.850 361.824,93.040 361.674,92.600 361.668 L 91.800 361.656 92.600 362.000 M97.343 363.000 C 97.673 363.330,98.136 363.600,98.371 363.600 C 99.027 363.600,98.881 362.917,98.167 362.643 C 97.074 362.223,96.720 362.377,97.343 363.000 M102.700 363.482 C 103.195 363.578,103.600 363.823,103.600 364.028 C 103.600 364.233,103.960 364.400,104.400 364.400 C 104.840 364.400,105.200 364.241,105.200 364.047 C 105.200 363.631,103.742 363.190,102.600 363.260 C 101.910 363.302,101.923 363.333,102.700 363.482 M280.000 363.870 C 285.360 364.160,290.802 364.175,290.801 363.900 C 290.800 363.735,287.875 363.634,284.300 363.676 C 280.725 363.717,278.790 363.805,280.000 363.870 " stroke="none" fill="#d13276" fill-rule="evenodd"></path><path id="path3" d="M135.319 210.577 C 134.971 210.974,134.447 211.036,133.416 210.804 C 132.323 210.557,131.916 210.622,131.658 211.083 C 131.371 211.595,131.195 211.604,130.449 211.141 C 129.703 210.679,129.514 210.688,129.157 211.200 C 128.843 211.651,128.689 211.676,128.536 211.300 C 128.296 210.709,126.000 210.618,126.000 211.200 C 126.000 211.441,124.341 211.600,121.824 211.600 C 119.471 211.600,117.539 211.775,117.400 212.000 C 117.264 212.220,116.083 212.400,114.776 212.400 C 113.469 212.400,112.400 212.557,112.400 212.748 C 112.400 212.939,111.635 213.211,110.700 213.352 C 106.581 213.973,106.000 214.108,106.000 214.444 C 106.000 214.640,104.950 214.800,103.668 214.800 C 100.089 214.800,100.228 214.010,100.523 232.693 C 100.930 258.440,102.087 266.247,106.931 275.940 C 112.608 287.302,121.189 293.289,138.000 297.620 C 146.528 299.818,234.242 300.673,255.600 298.767 C 264.472 297.975,272.798 295.421,277.900 291.926 C 279.915 290.546,280.008 289.877,278.400 288.340 C 277.740 287.709,277.200 286.925,277.200 286.597 C 277.200 286.268,277.020 286.000,276.800 286.000 C 276.580 286.000,276.400 285.749,276.400 285.443 C 276.400 285.136,276.144 284.787,275.830 284.667 C 275.517 284.547,274.941 283.762,274.551 282.924 C 274.160 282.086,273.517 281.109,273.120 280.753 C 272.724 280.397,272.400 279.819,272.400 279.467 C 272.400 279.116,272.040 278.635,271.600 278.400 C 271.076 278.120,270.800 277.562,270.800 276.786 C 270.800 275.974,270.602 275.600,270.171 275.600 C 269.227 275.600,268.400 274.586,268.400 273.429 C 268.400 272.863,268.203 272.400,267.962 272.400 C 267.099 272.400,265.200 270.731,265.200 269.973 C 265.200 269.545,264.926 269.200,264.587 269.200 C 264.251 269.200,263.861 268.885,263.722 268.500 C 263.582 268.115,262.786 267.119,261.952 266.286 C 261.118 265.454,260.038 264.194,259.553 263.486 C 259.068 262.779,257.800 261.349,256.735 260.309 C 255.671 259.269,254.800 258.230,254.800 258.000 C 254.800 257.406,250.800 253.510,249.494 252.832 C 248.892 252.520,248.400 252.017,248.400 251.714 C 248.400 251.049,246.619 249.200,245.979 249.200 C 245.727 249.200,245.006 248.649,244.377 247.976 L 243.234 246.752 240.917 248.305 C 239.643 249.159,237.430 250.673,236.000 251.670 C 201.325 275.843,152.271 259.121,140.158 219.000 C 139.627 217.240,138.891 214.810,138.524 213.600 C 137.532 210.336,136.438 209.304,135.319 210.577 M162.500 211.398 C 161.758 212.241,161.882 213.295,163.076 216.296 C 167.094 226.389,176.296 234.714,187.800 238.662 L 192.200 240.172 200.000 240.186 L 207.800 240.200 211.800 238.854 C 218.744 236.518,223.552 233.495,222.305 232.248 C 221.949 231.892,221.414 231.600,221.117 231.600 C 220.820 231.600,220.317 231.240,220.000 230.800 C 219.661 230.330,218.965 230.000,218.312 230.000 C 217.700 230.000,217.200 229.832,217.200 229.627 C 217.200 229.422,216.840 229.140,216.400 229.000 C 215.960 228.860,215.600 228.488,215.600 228.173 C 215.600 227.858,215.240 227.600,214.800 227.600 C 214.360 227.600,214.000 227.780,214.000 228.000 C 214.000 228.220,213.820 228.400,213.600 228.400 C 213.380 228.400,213.200 228.040,213.200 227.600 C 213.200 226.721,212.564 226.507,212.301 227.296 C 212.182 227.653,211.940 227.597,211.439 227.096 C 211.056 226.713,210.576 226.400,210.371 226.400 C 210.167 226.400,210.000 226.130,210.000 225.800 C 210.000 225.470,209.820 225.200,209.600 225.200 C 209.380 225.200,209.200 225.380,209.200 225.600 C 209.200 226.339,206.994 226.024,206.400 225.200 C 206.083 224.760,205.389 224.400,204.859 224.400 C 204.328 224.400,203.601 224.085,203.243 223.700 C 202.360 222.751,200.965 222.000,200.085 222.000 C 199.187 222.000,197.207 221.107,197.203 220.700 C 197.201 220.535,196.755 220.400,196.212 220.400 C 195.669 220.400,194.583 220.040,193.800 219.600 C 193.017 219.160,191.942 218.800,191.411 218.800 C 190.881 218.800,190.336 218.620,190.200 218.400 C 190.064 218.180,189.243 218.000,188.376 218.000 C 187.509 218.000,186.800 217.842,186.800 217.649 C 186.800 217.078,183.663 216.410,183.486 216.942 C 183.378 217.267,183.036 217.254,182.249 216.895 C 181.652 216.623,180.631 216.400,179.981 216.400 C 179.332 216.400,178.800 216.220,178.800 216.000 C 178.800 215.780,178.587 215.600,178.326 215.600 C 178.065 215.600,177.479 215.250,177.023 214.822 C 176.492 214.323,175.551 214.018,174.398 213.973 C 172.489 213.897,170.148 213.289,169.270 212.642 C 168.920 212.385,168.647 212.394,168.470 212.669 C 168.088 213.261,166.713 212.969,166.130 212.172 C 165.860 211.802,165.373 211.602,165.048 211.726 C 164.724 211.851,164.243 211.693,163.980 211.376 C 163.392 210.668,163.140 210.672,162.500 211.398 M75.700 223.482 C 75.205 223.578,74.800 223.801,74.800 223.978 C 74.800 224.155,74.367 224.300,73.837 224.300 C 73.307 224.300,72.468 224.678,71.972 225.140 C 71.476 225.602,70.694 225.949,70.235 225.912 C 69.311 225.836,66.800 226.833,66.800 227.277 C 66.800 227.727,62.948 229.536,61.354 229.835 C 60.415 230.011,59.827 230.374,59.702 230.854 C 59.594 231.264,59.168 231.600,58.753 231.600 C 58.339 231.600,57.999 231.735,57.997 231.900 C 57.992 232.347,55.974 233.200,54.920 233.200 C 54.414 233.200,53.999 233.335,53.997 233.500 C 53.994 233.792,52.112 234.800,51.569 234.800 C 51.419 234.800,50.353 235.700,49.200 236.800 C 48.047 237.900,46.757 238.800,46.335 238.800 C 45.912 238.800,45.180 239.160,44.708 239.600 C 44.236 240.040,43.613 240.400,43.325 240.400 C 43.036 240.400,42.800 240.580,42.800 240.800 C 42.800 241.020,42.483 241.200,42.096 241.200 C 41.709 241.200,41.168 241.560,40.893 242.000 C 40.618 242.440,40.112 242.800,39.768 242.800 C 39.000 242.800,38.000 243.752,38.000 244.484 C 38.000 244.781,37.460 245.228,36.800 245.478 L 35.600 245.931 35.600 268.685 C 35.600 286.326,35.712 291.552,36.099 291.939 C 36.432 292.272,36.598 293.794,36.599 296.519 C 36.600 299.421,36.758 300.766,37.147 301.175 C 37.526 301.574,37.625 302.330,37.470 303.641 C 37.300 305.073,37.386 305.586,37.823 305.753 C 38.140 305.875,38.400 306.296,38.399 306.687 C 38.399 307.732,39.995 314.454,40.486 315.473 C 40.717 315.953,40.798 316.628,40.666 316.973 C 40.528 317.332,40.635 317.600,40.915 317.600 C 41.185 317.600,41.640 318.365,41.927 319.300 C 42.538 321.293,46.957 330.208,47.626 330.800 C 47.751 330.910,48.460 331.900,49.202 333.000 C 51.274 336.072,52.806 337.996,55.095 340.400 C 56.247 341.610,57.192 342.825,57.195 343.100 C 57.198 343.375,57.417 343.600,57.683 343.600 C 57.949 343.600,58.894 344.273,59.783 345.095 C 60.672 345.917,59.935 345.062,58.144 343.195 C 54.542 339.439,50.730 334.616,49.778 332.610 C 49.438 331.894,48.809 330.931,48.380 330.471 C 46.907 328.890,47.757 326.843,49.900 326.813 C 50.529 326.804,50.800 326.559,50.800 326.000 C 50.800 325.467,51.067 325.200,51.600 325.200 C 52.040 325.200,52.400 325.020,52.400 324.800 C 52.400 324.580,52.760 324.400,53.200 324.400 C 53.640 324.400,54.000 324.220,54.000 324.000 C 54.000 323.780,54.360 323.600,54.800 323.600 C 55.240 323.600,55.600 323.420,55.600 323.200 C 55.600 322.980,55.932 322.800,56.338 322.800 C 56.744 322.800,57.402 322.440,57.800 322.000 C 58.198 321.560,58.859 321.200,59.267 321.200 C 59.942 321.200,61.502 320.511,62.000 319.992 C 62.110 319.877,62.650 319.557,63.200 319.280 C 63.750 319.002,65.100 318.257,66.200 317.624 C 67.300 316.991,68.595 316.456,69.077 316.436 C 69.560 316.416,70.190 316.068,70.477 315.663 C 71.007 314.915,72.187 314.505,74.900 314.126 C 75.725 314.010,76.400 313.755,76.400 313.558 C 76.400 313.361,76.665 313.200,76.988 313.200 C 77.311 313.200,78.217 312.840,79.000 312.400 C 79.783 311.960,80.768 311.600,81.189 311.600 C 81.609 311.600,82.064 311.420,82.200 311.200 C 82.533 310.661,84.400 310.688,84.400 311.232 C 84.400 311.736,86.374 311.396,88.200 310.578 C 88.860 310.282,90.211 309.978,91.203 309.903 C 92.195 309.828,93.186 309.656,93.404 309.521 C 93.860 309.239,101.262 309.449,104.100 309.824 C 106.525 310.144,106.492 309.765,103.900 307.575 C 89.073 295.046,81.230 279.103,78.825 256.600 C 78.613 254.620,78.243 246.700,78.002 239.000 C 77.562 224.959,77.435 223.153,76.892 223.254 C 76.732 223.284,76.195 223.387,75.700 223.482 M287.200 312.999 C 285.770 313.485,283.700 314.338,282.600 314.895 C 271.929 320.296,256.333 322.213,218.635 322.760 C 208.276 322.911,200.070 323.134,200.400 323.256 C 203.043 324.237,204.041 324.551,205.700 324.927 C 206.745 325.164,207.600 325.502,207.600 325.679 C 207.600 325.856,208.039 326.000,208.576 326.000 C 209.113 326.000,209.664 326.180,209.800 326.400 C 209.936 326.620,210.392 326.800,210.813 326.800 C 211.234 326.800,212.348 327.148,213.289 327.573 C 214.230 327.999,215.822 328.719,216.826 329.173 C 217.831 329.628,218.859 330.000,219.112 330.000 C 219.365 330.000,220.424 330.540,221.464 331.200 C 222.505 331.860,223.636 332.404,223.978 332.409 C 224.320 332.414,225.050 332.770,225.600 333.200 C 226.150 333.630,226.825 333.986,227.100 333.991 C 227.375 333.996,227.600 334.180,227.600 334.400 C 227.600 334.620,227.825 334.802,228.100 334.804 C 228.375 334.807,229.500 335.525,230.600 336.400 C 231.700 337.275,232.818 337.993,233.084 337.996 C 233.350 337.998,234.302 338.720,235.200 339.600 C 236.098 340.480,237.152 341.200,237.543 341.200 C 237.933 341.200,238.805 341.785,239.480 342.500 C 240.155 343.215,241.358 344.421,242.154 345.181 C 242.949 345.940,243.600 346.752,243.600 346.986 C 243.600 347.219,244.004 347.588,244.498 347.805 C 244.992 348.022,245.626 348.681,245.906 349.270 C 246.225 349.942,246.862 350.438,247.616 350.603 C 248.667 350.834,250.800 353.146,250.800 354.054 C 250.800 354.201,251.697 355.194,252.794 356.261 C 253.890 357.327,254.790 358.515,254.794 358.900 C 254.797 359.285,255.076 359.600,255.413 359.600 C 255.749 359.600,256.142 359.915,256.285 360.300 C 256.428 360.685,256.872 361.291,257.272 361.647 C 259.434 363.569,259.321 363.582,239.900 363.726 C 229.945 363.800,237.321 363.835,256.291 363.802 C 280.463 363.761,290.835 363.872,290.960 364.172 C 291.075 364.446,291.276 364.404,291.521 364.055 C 291.961 363.427,294.590 362.848,297.200 362.805 C 299.922 362.759,300.400 362.199,300.400 359.056 C 300.400 357.552,300.227 356.400,300.000 356.400 C 299.767 356.400,299.600 355.067,299.600 353.200 C 299.600 351.333,299.433 350.000,299.200 350.000 C 298.980 350.000,298.800 349.288,298.800 348.419 C 298.800 347.549,298.577 346.348,298.305 345.751 C 297.911 344.886,297.911 344.630,298.305 344.498 C 298.893 344.302,298.978 342.800,298.400 342.800 C 298.180 342.800,298.000 342.440,298.000 342.000 C 298.000 341.560,297.820 341.200,297.600 341.200 C 297.378 341.200,297.200 340.133,297.200 338.800 C 297.200 337.467,297.022 336.400,296.800 336.400 C 296.580 336.400,296.400 335.860,296.400 335.200 C 296.400 334.540,296.220 334.000,296.000 334.000 C 295.780 334.000,295.600 333.640,295.600 333.200 C 295.600 332.760,295.420 332.400,295.200 332.400 C 294.980 332.400,294.800 331.410,294.800 330.200 C 294.800 328.990,294.620 328.000,294.400 328.000 C 294.180 328.000,294.000 327.730,294.000 327.400 C 294.000 327.070,293.820 326.800,293.600 326.800 C 293.380 326.800,293.200 326.260,293.200 325.600 C 293.200 324.940,293.020 324.400,292.800 324.400 C 292.580 324.400,292.400 323.601,292.400 322.624 C 292.400 321.647,292.220 320.736,292.000 320.600 C 291.780 320.464,291.600 320.003,291.600 319.576 C 291.600 319.149,291.438 318.800,291.240 318.800 C 291.043 318.800,290.949 317.810,291.034 316.600 C 291.132 315.186,291.031 314.400,290.750 314.400 C 290.511 314.400,290.418 314.130,290.545 313.800 C 290.671 313.470,290.614 313.200,290.417 313.200 C 290.220 313.200,290.000 312.956,289.929 312.658 C 289.826 312.226,289.270 312.296,287.200 312.999 M61.616 346.673 C 61.631 346.999,65.200 349.774,65.200 349.461 C 65.200 349.370,64.390 348.633,63.400 347.821 C 62.410 347.010,61.607 346.493,61.616 346.673 " stroke="none" fill="#f6762d" fill-rule="evenodd"></path><path id="path4" d="M170.778 171.500 L 169.400 173.000 170.900 171.622 C 171.725 170.863,172.400 170.188,172.400 170.122 C 172.400 169.816,172.062 170.104,170.778 171.500 M229.600 172.200 C 230.346 172.970,231.047 173.600,231.157 173.600 C 231.267 173.600,230.746 172.970,230.000 172.200 C 229.254 171.430,228.553 170.800,228.443 170.800 C 228.333 170.800,228.854 171.430,229.600 172.200 M159.255 199.600 C 159.250 202.130,159.383 204.920,159.551 205.800 C 159.725 206.709,159.787 204.895,159.697 201.600 C 159.501 194.466,159.266 193.405,159.255 199.600 M137.350 200.600 C 137.351 203.020,137.416 203.958,137.496 202.685 C 137.576 201.412,137.575 199.432,137.494 198.285 C 137.414 197.138,137.349 198.180,137.350 200.600 M262.544 200.000 C 262.544 202.090,262.612 202.945,262.694 201.900 C 262.776 200.855,262.776 199.145,262.694 198.100 C 262.612 197.055,262.544 197.910,262.544 200.000 M322.124 203.000 C 322.126 204.320,322.201 204.812,322.290 204.093 C 322.379 203.374,322.377 202.294,322.286 201.693 C 322.195 201.092,322.122 201.680,322.124 203.000 M77.868 215.800 C 77.533 227.064,78.098 250.711,78.824 255.800 C 79.063 257.480,79.094 256.700,78.927 253.200 C 78.796 250.450,78.579 238.390,78.445 226.400 L 78.200 204.600 77.868 215.800 M137.687 207.800 C 137.683 208.460,137.824 209.450,138.000 210.000 L 138.320 211.000 138.313 210.000 C 138.309 209.450,138.168 208.460,138.000 207.800 L 137.695 206.600 137.687 207.800 M160.068 208.600 C 160.062 209.040,160.211 209.760,160.400 210.200 C 160.838 211.219,160.838 210.168,160.400 208.800 C 160.143 207.996,160.077 207.957,160.068 208.600 M138.404 212.033 C 138.473 222.862,150.895 242.281,163.473 251.227 C 171.797 257.147,187.851 263.304,192.337 262.295 C 192.702 262.213,192.190 262.014,191.200 261.852 C 165.901 257.712,145.659 239.730,139.810 216.200 C 138.744 211.909,138.396 210.880,138.404 212.033 M161.600 213.878 C 161.600 221.249,180.811 239.404,188.376 239.182 C 188.719 239.172,187.454 238.572,185.564 237.850 C 175.607 234.043,167.299 226.134,163.031 216.400 C 161.803 213.600,161.600 213.242,161.600 213.878 M100.064 230.000 C 99.968 246.603,100.743 258.625,102.283 264.400 C 102.605 265.610,103.012 267.140,103.187 267.800 C 107.685 284.782,119.748 294.813,140.400 298.748 C 151.454 300.853,251.218 300.868,259.258 298.765 C 260.335 298.483,260.166 298.453,258.400 298.611 C 236.196 300.594,145.639 299.828,137.800 297.591 C 137.140 297.402,134.620 296.707,132.200 296.045 C 117.975 292.157,108.346 282.636,103.836 268.000 C 101.500 260.417,100.891 254.180,100.436 233.200 L 100.128 219.000 100.064 230.000 M228.004 229.268 C 225.761 231.414,222.937 233.640,221.104 234.705 C 217.453 236.826,216.909 237.477,220.409 235.536 C 223.446 233.852,227.172 230.876,229.963 227.903 C 233.058 224.609,232.377 225.083,228.004 229.268 M321.720 238.400 C 321.720 239.610,321.795 240.105,321.887 239.500 C 321.978 238.895,321.978 237.905,321.887 237.300 C 321.795 236.695,321.720 237.190,321.720 238.400 M214.286 237.901 C 212.793 238.453,211.654 238.988,211.756 239.089 C 211.984 239.317,216.857 237.640,217.380 237.153 C 217.948 236.626,217.328 236.775,214.286 237.901 M189.600 239.600 C 189.930 239.813,190.560 239.978,191.000 239.966 L 191.800 239.944 191.000 239.600 C 189.804 239.086,188.805 239.086,189.600 239.600 M209.400 239.600 L 208.600 239.944 209.400 239.966 C 209.840 239.978,210.470 239.813,210.800 239.600 C 211.595 239.086,210.596 239.086,209.400 239.600 M245.462 242.900 C 239.608 249.107,227.292 257.600,224.144 257.600 C 223.871 257.600,223.524 257.799,223.374 258.043 C 222.837 258.911,225.989 257.570,231.000 254.800 C 237.098 251.428,241.884 247.464,247.782 240.900 C 250.159 238.254,248.470 239.710,245.462 242.900 M193.108 240.517 C 194.518 240.926,205.464 240.923,206.892 240.513 C 207.510 240.336,204.514 240.200,200.000 240.200 C 195.424 240.200,192.482 240.335,193.108 240.517 M299.724 243.800 C 299.726 245.120,299.801 245.612,299.890 244.893 C 299.979 244.174,299.977 243.094,299.886 242.493 C 299.795 241.892,299.722 242.480,299.724 243.800 M299.301 251.400 C 299.305 252.280,299.387 252.593,299.483 252.095 C 299.579 251.598,299.575 250.878,299.475 250.495 C 299.375 250.113,299.296 250.520,299.301 251.400 M79.287 259.800 C 79.283 260.680,79.424 261.850,79.600 262.400 C 80.043 263.782,80.043 261.140,79.600 259.400 C 79.310 258.258,79.294 258.278,79.287 259.800 M219.200 259.547 C 218.870 259.725,217.520 260.100,216.200 260.380 C 212.819 261.098,211.534 261.527,212.636 261.568 C 213.684 261.608,219.387 260.165,220.312 259.626 C 221.181 259.119,220.133 259.045,219.200 259.547 M208.200 262.000 L 207.000 262.305 208.400 262.313 C 209.170 262.317,210.250 262.176,210.800 262.000 C 212.199 261.552,209.961 261.552,208.200 262.000 M196.700 262.875 C 198.707 263.098,201.293 263.098,203.300 262.875 C 206.370 262.533,206.140 262.507,200.000 262.507 C 193.860 262.507,193.630 262.533,196.700 262.875 M80.041 264.307 C 79.973 265.808,81.576 272.760,82.876 276.600 C 87.072 288.999,94.007 299.216,103.900 307.575 C 106.492 309.765,106.525 310.144,104.100 309.824 C 101.262 309.449,93.860 309.239,93.404 309.521 C 93.186 309.656,92.195 309.828,91.203 309.903 C 90.211 309.978,88.860 310.282,88.200 310.578 C 86.374 311.396,84.400 311.736,84.400 311.232 C 84.400 310.688,82.533 310.661,82.200 311.200 C 82.064 311.420,81.609 311.600,81.189 311.600 C 80.768 311.600,79.783 311.960,79.000 312.400 C 78.217 312.840,77.311 313.200,76.988 313.200 C 76.665 313.200,76.400 313.361,76.400 313.558 C 76.400 313.755,75.725 314.010,74.900 314.126 C 72.187 314.505,71.007 314.915,70.477 315.663 C 70.190 316.068,69.560 316.416,69.077 316.436 C 68.595 316.456,67.300 316.991,66.200 317.624 C 65.100 318.257,63.750 319.002,63.200 319.280 C 62.650 319.557,62.110 319.877,62.000 319.992 C 61.502 320.511,59.942 321.200,59.267 321.200 C 58.859 321.200,58.198 321.560,57.800 322.000 C 57.402 322.440,56.744 322.800,56.338 322.800 C 55.932 322.800,55.600 322.980,55.600 323.200 C 55.600 323.420,55.240 323.600,54.800 323.600 C 54.360 323.600,54.000 323.780,54.000 324.000 C 54.000 324.220,53.640 324.400,53.200 324.400 C 52.760 324.400,52.400 324.580,52.400 324.800 C 52.400 325.020,52.040 325.200,51.600 325.200 C 51.067 325.200,50.800 325.467,50.800 326.000 C 50.800 326.559,50.529 326.804,49.900 326.813 C 47.757 326.843,46.907 328.890,48.380 330.471 C 48.809 330.931,49.438 331.894,49.778 332.610 C 53.929 341.357,68.075 352.908,80.971 358.079 C 86.266 360.202,94.433 362.400,97.025 362.400 C 97.530 362.400,98.181 362.630,98.471 362.912 C 98.805 363.235,100.074 363.419,101.914 363.412 C 103.517 363.405,104.957 363.580,105.114 363.800 C 105.357 364.141,162.265 364.081,247.700 363.652 C 258.701 363.596,259.320 363.467,257.272 361.647 C 256.872 361.291,256.428 360.685,256.285 360.300 C 256.142 359.915,255.749 359.600,255.413 359.600 C 255.076 359.600,254.797 359.285,254.794 358.900 C 254.790 358.515,253.890 357.327,252.794 356.261 C 251.697 355.194,250.800 354.201,250.800 354.054 C 250.800 353.146,248.667 350.834,247.616 350.603 C 246.862 350.438,246.225 349.942,245.906 349.270 C 245.626 348.681,244.992 348.022,244.498 347.805 C 244.004 347.588,243.600 347.219,243.600 346.986 C 243.600 346.752,242.949 345.940,242.154 345.181 C 241.358 344.421,240.155 343.215,239.480 342.500 C 238.805 341.785,237.933 341.200,237.543 341.200 C 237.152 341.200,236.098 340.480,235.200 339.600 C 234.302 338.720,233.350 337.998,233.084 337.996 C 232.818 337.993,231.700 337.275,230.600 336.400 C 229.500 335.525,228.375 334.807,228.100 334.804 C 227.825 334.802,227.600 334.620,227.600 334.400 C 227.600 334.180,227.375 333.996,227.100 333.991 C 226.825 333.986,226.150 333.630,225.600 333.200 C 225.050 332.770,224.320 332.414,223.978 332.409 C 223.636 332.404,222.505 331.860,221.464 331.200 C 220.424 330.540,219.365 330.000,219.112 330.000 C 218.859 330.000,217.831 329.628,216.826 329.173 C 215.822 328.719,214.230 327.999,213.289 327.573 C 212.348 327.148,211.234 326.800,210.813 326.800 C 210.392 326.800,209.936 326.620,209.800 326.400 C 209.664 326.180,209.113 326.000,208.576 326.000 C 208.039 326.000,207.600 325.856,207.600 325.679 C 207.600 325.502,206.745 325.164,205.700 324.927 C 204.039 324.551,203.121 324.262,200.400 323.257 C 200.070 323.135,208.530 322.905,219.200 322.745 C 236.980 322.478,257.809 321.529,258.369 320.961 C 258.496 320.832,257.340 320.814,255.800 320.922 C 239.252 322.077,157.682 322.315,147.000 321.239 C 132.383 319.766,123.384 317.505,114.600 313.099 C 111.187 311.388,106.268 308.398,105.600 307.630 C 105.490 307.504,104.500 306.683,103.400 305.807 C 92.818 297.376,84.848 284.326,81.655 270.200 C 80.222 263.862,80.084 263.360,80.041 264.307 M289.465 282.200 C 288.637 283.190,288.084 284.000,288.236 284.000 C 288.511 284.000,288.884 283.576,290.433 281.500 C 291.713 279.786,291.131 280.206,289.465 282.200 M286.000 286.200 C 285.028 287.190,284.323 288.000,284.433 288.000 C 284.543 288.000,285.428 287.190,286.400 286.200 C 287.372 285.210,288.077 284.400,287.967 284.400 C 287.857 284.400,286.972 285.210,286.000 286.200 M281.731 289.754 C 278.981 291.941,278.582 292.421,280.800 290.874 C 283.387 289.070,284.165 288.429,283.971 288.259 C 283.877 288.176,282.869 288.849,281.731 289.754 M276.472 293.072 C 275.302 293.625,274.429 294.163,274.533 294.266 C 274.740 294.474,278.800 292.502,278.800 292.193 C 278.800 291.954,278.995 291.880,276.472 293.072 M271.000 295.418 C 269.680 295.927,267.610 296.569,266.400 296.844 C 265.190 297.119,264.526 297.417,264.925 297.506 C 265.751 297.691,273.491 295.301,273.827 294.757 C 274.130 294.266,273.766 294.352,271.000 295.418 M261.800 298.000 L 261.000 298.344 261.800 298.344 C 262.240 298.344,262.960 298.189,263.400 298.000 L 264.200 297.656 263.400 297.656 C 262.960 297.656,262.240 297.811,261.800 298.000 M301.391 301.700 L 298.200 305.000 301.500 301.809 C 304.565 298.846,304.982 298.400,304.691 298.400 C 304.630 298.400,303.145 299.885,301.391 301.700 M297.017 305.581 C 296.628 306.011,294.936 307.299,293.255 308.443 C 289.733 310.842,288.679 311.751,291.000 310.389 C 292.960 309.238,296.844 306.310,297.567 305.440 C 298.324 304.527,297.864 304.646,297.017 305.581 M285.200 313.164 C 283.110 314.222,279.911 315.589,278.092 316.202 C 276.273 316.815,274.866 317.399,274.966 317.500 C 275.501 318.034,288.395 312.580,289.031 311.551 C 289.331 311.065,289.433 311.022,285.200 313.164 M272.800 318.000 C 272.267 318.345,272.267 318.388,272.800 318.388 C 273.130 318.388,273.670 318.213,274.000 318.000 C 274.533 317.655,274.533 317.612,274.000 317.612 C 273.670 317.612,273.130 317.787,272.800 318.000 M266.800 319.205 C 264.930 319.590,262.320 320.051,261.000 320.228 C 259.572 320.420,258.989 320.616,259.560 320.711 C 260.573 320.880,270.010 319.339,271.391 318.779 C 272.777 318.217,270.623 318.417,266.800 319.205 " stroke="none" fill="#fbc45c" fill-rule="evenodd"></path></g></svg>